<ttFont>
          <CharString index="0">
            4 -63 rlineto
            98 316 hlineto
            150 -28 52 -146 -46 -55 -6 -10 -46 vhcurveto
            -84 vlineto
            4 38 57 4 22 hhcurveto
            81 17 -6 -98 hvcurveto
            -25 vlineto
            2 -36 -52 2 -22 hhcurveto
            -98 -32 -41 -116 hvcurveto
            return
          </CharString>
          <CharString index="1">
            112 385 hlineto
            243 -14 68 -189 -189 -14 -68 -243 vhcurveto
            -385 112 213 182 vlineto
            214 vmoveto
            -111 -182 111 vlineto
            147 4 21 87 86 5 -21 -147 vhcurveto
            return
          </CharString>
          <CharString index="2">
            -106 callgsubr
            -11 -7 -7 -22 -12 hvcurveto
            return
          </CharString>
          <CharString index="3">
            rmoveto
            -68 hlineto
            -46 -2 -27 -56 -55 0 27 46 vhcurveto
            -68 hlineto
            -81 10 -57 113 -65 callgsubr
            vhcurveto
            return
          </CharString>
          <CharString index="4">
            rmoveto
            -61 callgsubr
            53 callgsubr
            -279 8 -73 205 hvcurveto
            101 vmoveto
            -95 -6 6 245 245 6 6 95 95 7 -6 -245 -245 -7 -6 -95 hvcurveto
            return
          </CharString>
          <CharString index="5">
            -148 -4 -20 -87 -86 -5 20 148 vhcurveto
            427 -112 -385 vlineto
            -244 14 -67 189 189 14 67 244 vhcurveto
            return
          </CharString>
          <CharString index="6">
            9 -28 -31 10 -30 hhcurveto
            -68 -3 -42 -81 hvcurveto
            63 hlineto
            33 2 11 19 -66 callgsubr
            vhcurveto
            return
          </CharString>
          <CharString index="7">
            rmoveto
            110 hlineto
            77 128 rlineto
            7 -74 vlineto
            -58 -81 -58 81 rlineto
            -74 -7 hlineto
            return
          </CharString>
          <CharString index="8">
            -72 -2 16 155 156 2 15 72 72 2 -15 -156 -155 -2 -16 -72 hvcurveto
            return
          </CharString>
          <CharString index="9">
            101 56 32 127 120 -40 20 -51 7 hvcurveto
            -79 10 rlineto
            -34 4 -5 6 49 vvcurveto
            50 18 9 52 36 48 -4 -5 31 vhcurveto
            85 vlineto
            9 -29 -54 7 -44 hhcurveto
            -100 -64 -31 -122 -101 19 -36 56 -8 hvcurveto
            91 -13 rlineto
            37 -5 6 -3 -55 vvcurveto
            -46 -8 -14 -64 -40 -37 2 6 -48 vhcurveto
            -86 vlineto
            return
          </CharString>
          <CharString index="10">
            rmoveto
            -195 vlineto
            -3 -21 -25 -2 -17 hhcurveto
            -98 -12 36 218 246 21 5 132 27 57 -6 -7 43 hvcurveto
            94 vlineto
            12 -44 -68 8 -51 hhcurveto
            -189 -40 -65 -287 -288 39 -64 183 56 72 8 12 44 hvcurveto
            378 -187 -100 vlineto
            return
          </CharString>
          <CharString index="11">
            92 vmoveto
            -99 callsubr
            return
          </CharString>
          <CharString index="12">
            -9 28 31 -10 30 hhcurveto
            67 4 42 81 hvcurveto
            return
          </CharString>
          <CharString index="13">
            rmoveto
            -97 callgsubr
            return
          </CharString>
          <CharString index="14">
            rmoveto
            85 5 hlineto
            -55 -59 callsubr
            -109 -5 hlineto
            return
          </CharString>
          <CharString index="15">
            13 293 rmoveto
            -65 -8 11 151 154 7 8 66 40 18 -13 -43 7 hvcurveto
            4 -24 1 -35 -47 vvcurveto
            -54 -1 -37 -6 -25 vhcurveto
            -35 -8 -17 -11 -38 hhcurveto
            endchar
          </CharString>
          <CharString index="16">
            172 15 79 185 hvcurveto
            445 -106 -266 vlineto
            -116 -3 -34 -68 -59 -6 8 130 vhcurveto
            278 -106 -292 vlineto
            -153 10 -68 113 vhcurveto
            return
          </CharString>
          <CharString index="17">
            -2 -8 -82 callsubr
            return
          </CharString>
          <CharString index="18">
            -15 -7 rlineto
            -29 -14 -14 -6 -41 vvcurveto
            return
          </CharString>
          <CharString index="19">
            rmoveto
            -81 -394 rlineto
            -8 hlineto
            -82 394 rlineto
            -109 hlineto
            122 -510 rlineto
            37 hlineto
            -46 -196 rlineto
            107 hlineto
            167 706 rlineto
            endchar
          </CharString>
          <CharString index="20">
            rmoveto
            93 vlineto
            -5 -27 -39 -3 -29 hhcurveto
            -113 -8 21 230 230 8 21 113 23 35 -3 -5 35 hvcurveto
            93 vlineto
            9 -24 -48 7 -43 hhcurveto
            -184 -27 -73 -279 -280 25 -72 186 40 49 7 9 28 hvcurveto
            endchar
          </CharString>
          <CharString index="21">
            -5 -27 -33 -3 -23 hhcurveto
            -77 -11 19 152 150 10 21 78 21 32 -3 -5 27 hvcurveto
            85 vlineto
            9 -22 -46 6 -40 hhcurveto
            -142 -24 -75 -188 return
          </CharString>
          <CharString index="22">
            -89 276 rlineto
            67 34 8 81 80 vvcurveto
            134 -21 83 -150 vhcurveto
            -227 -688 112 253 106 hlineto
            76 -253 rlineto
            -95 354 rmoveto
            -87 233 87 hlineto
            79 8 -24 -92 -92 -8 -25 -79 hvcurveto
            endchar
          </CharString>
          <CharString index="23">
            123 -112 123 hstemhm
            return
          </CharString>
          <CharString index="24">
            -76 callsubr
            hintmask 0101111010000000
            -107 callsubr
            hintmask 1001111010000000
            -101 callgsubr
            endchar
          </CharString>
          <CharString index="25">
            96 -88 88 -25 -58 callsubr
            return
          </CharString>
          <CharString index="26">
            rmoveto
            71 hlineto
            69 121 rlineto
            4 -91 vlineto
            -49 -121 rlineto
            145 -4 rmoveto
            71 hlineto
            69 121 rlineto
            4 -91 vlineto
            -49 -121 rlineto
            return
          </CharString>
          <CharString index="27">
            rmoveto
            -78 callgsubr
          </CharString>
          <CharString index="28">
            61 40 20 52 18 hvcurveto
            6 hlineto
            return
          </CharString>
          <CharString index="29">
            60 37 21 46 16 hvcurveto
            6 -31 hlineto
            -117 -5 -22 -99 -33 -50 1 1 -30 vhcurveto
            -85 vlineto
            return
          </CharString>
          <CharString index="30">
            132 hlineto
            101 510 rlineto
            -102 hlineto
            -62 -376 rlineto
            -7 hlineto
            -75 376 rlineto
            -106 hlineto
            -74 -376 rlineto
            -7 hlineto
            -63 376 rlineto
            -107 hlineto
            102 -510 rlineto
            133 hlineto
            return
          </CharString>
          <CharString index="31">
            41 56 10 61 21 hvcurveto
            6 hlineto
            return
          </CharString>
          <CharString index="32">
            89 21 -21 213 103 279 101 return
          </CharString>
          <CharString index="33">
            rmoveto
            hintmask 11111100
            -82 callgsubr
            hintmask 11111010
            -43 callsubr
            hintmask 11111100
            -56 callsubr
            endchar
          </CharString>
          <CharString index="34">
            rmoveto
            -65 vlineto
            -26 -12 -7 -61 vhcurveto
            return
          </CharString>
          <CharString index="35">
            18 2 2 28 14 vhcurveto
            return
          </CharString>
          <CharString index="36">
            38 9 18 26 56 vvcurveto
            75 -37 23 -82 -84 -36 -23 -75 -56 19 -26 36 -9 vhcurveto
            -2 vlineto
            -38 -10 -19 -19 -64 vvcurveto
            return
          </CharString>
          <CharString index="37">
            rmoveto
            135 36 14 163 hvcurveto
            526 -106 -565 20 callgsubr
            endchar
          </CharString>
          <CharString index="38">
            743 -104 callsubr
            return
          </CharString>
          <CharString index="39">
            -286 -307 -107 callgsubr
            return
          </CharString>
          <CharString index="40">
            -155 -168 -107 callgsubr
            return
          </CharString>
          <CharString index="41">
            -188 414 rlineto
            -113 -688 108 434 4 hlineto
            return
          </CharString>
          <CharString index="42">
            6 -25 -31 2 -37 hhcurveto
            -205 -8 -73 -279 -279 8 -73 205 45 callgsubr
            return
          </CharString>
          <CharString index="43">
            rmoveto
            59 -81 rlineto
            74 7 hlineto
            -77 127 rlineto
            -111 hlineto
            -76 -127 rlineto
            -7 73 vlineto
            return
          </CharString>
          <CharString index="44">
            97 0 96 499 101 hstemhm
            49 114 -21 89 65 89 -22 114 hintmask 11100100
            50 hmoveto
            hintmask 11010100
            181 95 hlineto
            hintmask 11100100
            -61 14 -7 47 206 vvcurveto
            209 5 24 95 96 4 -26 -207 -206 -5 -47 -62 -14 vhcurveto
            hintmask 11101000
            -95 vlineto
            hintmask 11100100
            181 96 -2 hlineto
            hintmask 11101000
            -29 -30 -16 -7 -31 hvcurveto
            6 vlineto
            hintmask 11100100
            69 39 23 99 157 vvcurveto
            235 -15 87 -199 -198 -16 -87 -235 -157 24 -99 69 -39 vhcurveto
            -6 vlineto
            7 -31 -29 16 -30 hhcurveto
            -2 hlineto
            endchar
          </CharString>
          <CharString index="45">
            1 -8 92 134 80 128 92 return
          </CharString>
          <CharString index="46">
            rmoveto
            5 -109 vlineto
            -55 -139 rlineto
            -5 84 vlineto
            return
          </CharString>
          <CharString index="47">
            10 vhcurveto
            23 14 24 13 23 14 rrcurveto
            36 21 11 24 59 vvcurveto
            96 -47 8 -58 -30 -41 -4 -6 -30 vhcurveto
            -63 vlineto
            4 33 33 3 14 hhcurveto
            39 14 -5 -38 -33 -9 -5 -25 -15 hvcurveto
            -68 -41 rlineto
            -32 -19 -3 -27 -68 vvcurveto
            -64 210 return
          </CharString>
          <CharString index="48">
            139 rlineto
            return
          </CharString>
          <CharString index="49">
            25 133 80 125 92 return
          </CharString>
          <CharString index="50">
            -66 -8 10 154 153 8 12 66 40 18 -14 -44 7 hvcurveto
            4 -25 1 -35 -47 vvcurveto
            -62 -2 -40 -8 -25 vhcurveto
            return
          </CharString>
          <CharString index="51">
            -200 356 rmoveto
            -89 231 90 hlineto
            75 6 -26 -90 -88 -10 -27 -72 hvcurveto
            return
          </CharString>
          <CharString index="52">
            -692 -17 callgsubr
            hintmask 1011111100000000
            -71 callsubr
            hintmask 1011111010000000
            -76 29 -28 93 vhcurveto
            hintmask 1011111100000000
            -49 callgsubr
            hintmask 1011111010000000
            -52 callgsubr
          </CharString>
          <CharString index="53">
            106 418 89 92 -89 72 hlineto
            70 12 8 77 vhcurveto
            83 vlineto
            -155 -40 -12 -171 hvcurveto
            -50 -68 -92 68 vlineto
            return
          </CharString>
          <CharString index="54">
            -43 0 117 478 101 hstemhm
            90 119 -109 99 30 114 hintmask 11010000
            100 207 rmoveto
            99 55 hlineto
            54 3 6 48 24 vhcurveto
            hintmask 11011000
            15 8 rlineto
            63 33 15 49 88 vvcurveto
            116 -45 56 -120 -45 -64 -7 -9 -41 vhcurveto
            -94 vlineto
            5 32 44 4 27 hhcurveto
            72 26 -7 -75 -58 -11 -12 -38 -23 hvcurveto
            hintmask 11010000
            -18 -11 rlineto
            -42 -25 -20 -11 -80 vvcurveto
            hintmask 11100000
            -10 -293 -94 callgsubr
          </CharString>
          <CharString index="55">
            rmoveto
            97 510 -106 -268 hlineto
            return
          </CharString>
          <CharString index="56">
            31 13 15 24 50 vvcurveto
            75 -32 27 -80 -28 -39 -5 -6 -27 vhcurveto
            -63 vlineto
            5 33 27 3 18 hhcurveto
            42 13 -7 -40 -43 -12 -5 -23 hvcurveto
            return
          </CharString>
          <CharString index="57">
            rmoveto
            5 vlineto
            -55 -59 callsubr
            -109 -5 hlineto
            79 -139 rlineto
            return
          </CharString>
          <CharString index="58">
            127 33 44 94 vhcurveto
            113 vlineto
            -62 -42 -19 -77 -21 hvcurveto
            -7 hlineto
            return
          </CharString>
          <CharString index="59">
            rmoveto
            486 64 vlineto
            101 9 -5 -238 -238 -8 -5 -102 hvcurveto
            return
          </CharString>
          <CharString index="60">
            rmoveto
            36 15 2 31 48 vvcurveto
            72 -4 34 -116 -114 -4 -34 -72 -49 2 -31 36 -15 vhcurveto
            -159 -686 115 callgsubr
            -158 rlineto
            115 hlineto
            -242 832 rmoveto
            50 1 -12 -39 -39 -1 -11 -50 -48 -1 11 39 39 1 12 48 hvcurveto
            -71 -574 rmoveto
            68 319 rlineto
            6 hlineto
            66 -319 rlineto
            endchar
          </CharString>
          <CharString index="61">
            -4 64 rlineto
            -97 -510 106 268 hlineto
            return
          </CharString>
          <CharString index="62">
            -21 -14 callgsubr
            return
          </CharString>
          <CharString index="63">
            rmoveto
            95 21 27 105 99 -35 14 -55 -49 -14 -18 -7 -8 hvcurveto
            -4 hlineto
            86 3 13 71 19 33 -2 -4 26 vhcurveto
            63 vlineto
            7 -24 -40 5 -29 hhcurveto
            -77 -33 -21 -64 -12 hvcurveto
            -5 -32 -4 -34 -44 vvcurveto
            -27 0 -27 2 -34 vhcurveto
            -91 6 30 -14 83 hhcurveto
            -3 69 rmoveto
            -34 -11 -2 60 47 5 2 40 40 7 -2 -53 -58 -8 6 -39 hvcurveto
            endchar
          </CharString>
          <CharString index="64">
            87 hlineto
            76 1 -44 -67 5 hvcurveto
            9 -145 rlineto
            111 hlineto
            return
          </CharString>
          <CharString index="65">
            20 -199 93 104 96 324 28 -28 92 -92 100 return
          </CharString>
          <CharString index="66">
            34 127 hvcurveto
            83 -113 -111 44 -16 vlineto
            -53 -9 -15 -44 vhcurveto
            return
          </CharString>
          <CharString index="67">
            rmoveto
            28 1 12 5 8 vhcurveto
            3 6 5 2 10 4 28 11 22 11 28 12 rrcurveto
            38 17 12 26 60 vvcurveto
            102 -54 6 -61 -34 -43 -5 -6 -27 vhcurveto
            -62 vlineto
            3 33 31 1 17 hhcurveto
            49 18 3 -47 -25 -3 -8 -26 -12 hvcurveto
            -25 -11 -24 -10 -24 -12 rrcurveto
            -47 -23 -3 -23 -96 vvcurveto
            -51 223 68 -152 vlineto
            endchar
          </CharString>
          <CharString index="68">
            100 -92 92 -28 28 return
          </CharString>
          <CharString index="69">
            rmoveto
            -34 callgsubr
          </CharString>
          <CharString index="70">
            hstem
            -12 callsubr
            182 -41 callgsubr
            return
          </CharString>
          <CharString index="71">
            11 -53 callgsubr
            return
          </CharString>
          <CharString index="72">
            101 502 101 return
          </CharString>
          <CharString index="73">
            11 callsubr
            hlineto
            476 -688 rmoveto
            -75 callgsubr
            -364 6 -48 callsubr
            endchar
          </CharString>
          <CharString index="74">
            -13 callsubr
            hlineto
            return
          </CharString>
          <CharString index="75">
            hhcurveto
            -160 -33 -55 -178 -175 55 -25 104 82 25 30 18 13 hvcurveto
            6 hlineto
            -185 -10 -33 -119 -32 -55 5 7 -45 vhcurveto
            -93 vlineto
            -12 44 64 -8 45 hhcurveto
            21 372 rmoveto
            -73 -14 6 112 110 16 3 71 65 20 -8 -123 -84 -8 -16 -77 hvcurveto
            endchar
          </CharString>
          <CharString index="76">
            rmoveto
            -7 callsubr
            return
          </CharString>
          <CharString index="77">
            25 -199 93 103 97 -30 30 416 -20 return
          </CharString>
          <CharString index="78">
            8 134 71 rcurveline
            61 32 23 43 113 vvcurveto
            171 -84 15 -101 -57 -73 -8 -10 -45 vhcurveto
            -93 vlineto
            6 55 56 4 32 hhcurveto
            79 26 -7 -87 -55 -6 -20 -44 -24 hvcurveto
            -41 -23 -42 -22 -41 -23 rrcurveto
            -79 -43 -3 -42 -162 vvcurveto
            -87 368 101 -257 vlineto
            endchar
          </CharString>
          <CharString index="79">
            46 rmoveto
            99 62 67 110 126 vvcurveto
            125 -67 111 -99 62 vhcurveto
            -32 -51 rlineto
            82 -51 56 -92 -104 vvcurveto
            -105 -55 -91 -83 -52 vhcurveto
            -31 51 rmoveto
            65 41 44 73 83 vvcurveto
            83 -44 73 -66 41 vhcurveto
            -32 -51 rlineto
            49 -31 33 -54 -61 vvcurveto
            -62 -33 -53 -48 -31 vhcurveto
            return
          </CharString>
          <CharString index="80">
            599 -70 callgsubr
            return
          </CharString>
          <CharString index="81">
            -61 -40 -20 -52 -18 hvcurveto
            -6 hlineto
            return
          </CharString>
          <CharString index="82">
            -59 callsubr
            5 -109 vlineto
            return
          </CharString>
          <CharString index="83">
            -74 callgsubr
            hintmask 11100100
            -5 callgsubr
            hintmask 11101000
            return
          </CharString>
          <CharString index="84">
            888 -10 callsubr
            -208 -888 rmoveto
            112 return
          </CharString>
          <CharString index="85">
            rmoveto
            32 51 rlineto
            -48 31 -33 53 62 vvcurveto
            61 33 54 49 31 vhcurveto
            -32 51 rlineto
            -66 -41 -44 -73 -83 vvcurveto
            -83 44 -73 65 -41 vhcurveto
            return
          </CharString>
          <CharString index="86">
            -190 0 117 571 -20 hstemhm
            58 129 -124 119 hintmask 00000000
            hintmask 11100000
            86 208 rmoveto
            73 hlineto
            0 28 347 75 vvcurveto
            58 -129 -58 vlineto
            -75 28 -347 0 vhcurveto
            hintmask 11010000
            -23 -208 -94 callgsubr
          </CharString>
          <CharString index="87">
            -13 -175 18 callgsubr
            return
          </CharString>
          <CharString index="88">
            hstem
            -9 callsubr
            203 -41 callgsubr
            return
          </CharString>
          <CharString index="89">
            hstemhm
            61 112 return
          </CharString>
          <CharString index="90">
            7 10 27 70 vvcurveto
            41 vlineto
            endchar
          </CharString>
          <CharString index="91">
            61 hmoveto
            11 callsubr
            return
          </CharString>
          <CharString index="92">
            743 -94 callsubr
            hintmask 10110000
            -101 callsubr
            hintmask 01110000
            -95 callsubr
            endchar
          </CharString>
          <CharString index="93">
            384 276 rmoveto
            67 34 8 81 80 vvcurveto
            134 -21 83 -150 vhcurveto
            -227 -688 112 253 106 hlineto
            76 -253 rlineto
            118 hlineto
            -213 354 rmoveto
            -87 233 87 hlineto
            79 8 -24 -92 -92 -8 -25 -79 hvcurveto
            return
          </CharString>
          <CharString index="94">
            74 callgsubr
            -112 return
          </CharString>
          <CharString index="95">
            57 112 return
          </CharString>
          <CharString index="96">
            59 11 9 43 return
          </CharString>
          <CharString index="97">
            -94 callsubr
            hintmask 11101110
            -101 callsubr
            hintmask 11011110
            -95 callsubr
            return
          </CharString>
          <CharString index="98">
            47 112 return
          </CharString>
          <CharString index="99">
            68 hlineto
            46 2 27 56 return
          </CharString>
          <CharString index="100">
            106 510 -106 hlineto
            return
          </CharString>
          <CharString index="101">
            -21 158 100 return
          </CharString>
          <CharString index="102">
            hstemhm
            -12 callsubr
            return
          </CharString>
          <CharString index="103">
            46 -19 -39 17 -53 hhcurveto
            -104 -29 -64 -201 return
          </CharString>
          <CharString index="104">
            134 48 callgsubr
            return
          </CharString>
          <CharString index="105">
            297 hmoveto
            114 hlineto
            -125 265 123 245 rlineto
            -110 hlineto
            -100 -209 rlineto
            -38 return
          </CharString>
          <CharString index="106">
            -8 rmoveto
            160 33 55 178 175 -55 25 -104 -82 -25 -30 -18 -13 hvcurveto
            -6 hlineto
            185 10 33 119 33 54 -5 -7 45 vhcurveto
            93 vlineto
            12 -44 -64 8 -45 hhcurveto
            return
          </CharString>
          <CharString index="107">
            76 0 95 486 107 hstem
            12 482 vstem
            12 hmoveto
            482 hlineto
            -161 688 rlineto
            -161 hlineto
            81 -107 rmoveto
            106 -486 rlineto
            -216 hlineto
            106 486 rlineto
            endchar
          </CharString>
          <CharString index="108">
            1031 -94 callsubr
            return
          </CharString>
          <CharString index="109">
            61 hmoveto
            310 104 -198 584 -112 hlineto
            return
          </CharString>
          <CharString index="110">
            114 -111.5 111 return
          </CharString>
          <CharString index="111">
            hstem
            -256 -30 callgsubr
            vstem
            return
          </CharString>
          <CharString index="112">
            rmoveto
            77 128 rlineto
            7 -74 vlineto
            -58 -81 -58 81 rlineto
            -74 -7 hlineto
            77 -128 rlineto
            return
          </CharString>
          <CharString index="113">
            104 -193 85 129 -45 callsubr
            hstem
            9 callsubr
            vstem
            366 688 rmoveto
            -414 -4 vlineto
            -188 414 rlineto
            -113 return
          </CharString>
          <CharString index="114">
            4 -63 rlineto
            98 743 -106 -288 -6 hlineto
            return
          </CharString>
          <CharString index="115">
            209 0 134 184 192 0 -20 return
          </CharString>
          <CharString index="116">
            61 108 197 108 return
          </CharString>
          <CharString index="117">
            hstem
            66 callsubr
            vstem
            return
          </CharString>
          <CharString index="118">
            -18 callgsubr
            31 callsubr
            hvcurveto
            -179 return
          </CharString>
          <CharString index="119">
            -5 callsubr
            -45 95 81 95 -44 -21 callgsubr
            return
          </CharString>
          <CharString index="120">
            112 584 142 104 -396 -104 142 hlineto
            return
          </CharString>
          <CharString index="121">
            hstem
            34 112 158 -41 callgsubr
            return
          </CharString>
          <CharString index="122">
            -6 32 57 -4 47 hhcurveto
            endchar
          </CharString>
          <CharString index="123">
            634 -15 callgsubr
            return
          </CharString>
          <CharString index="124">
            176 13 80 185 hvcurveto
            return
          </CharString>
          <CharString index="125">
            781 rmoveto
            95 94 -95 hlineto
            return
          </CharString>
          <CharString index="126">
            101 -29 callgsubr
            -16 callsubr
            return
          </CharString>
          <CharString index="127">
            -75 callsubr
            54 65 102 144 91 callsubr
            113 68 -33 112 hintmask 1111110010000000
            return
          </CharString>
          <CharString index="128">
            -41 callgsubr
            360 hmoveto
            41 callsubr
            return
          </CharString>
          <CharString index="129">
            -59 -38 -21 -47 -18 hvcurveto
            -5 293 -106 -743 106 268 hlineto
            return
          </CharString>
          <CharString index="130">
            164 -18 -104 callsubr
            return
          </CharString>
          <CharString index="131">
            94 4 12 26 75 vvcurveto
            41 vlineto
            return
          </CharString>
          <CharString index="132">
            115 callsubr
            109 144 hstemhm
            53 106 136 106 17 69 hintmask 1000111100000000
            return
          </CharString>
          <CharString index="133">
            369 hmoveto
            -77 callgsubr
            return
          </CharString>
          <CharString index="134">
            rmoveto
            113 111 -44 16 hlineto
            53 9 15 44 vhcurveto
            49 vlineto
            return
          </CharString>
          <CharString index="135">
            609 -74 callgsubr
            return
          </CharString>
          <CharString index="136">
            75 12 63 callgsubr
            return
          </CharString>
          <CharString index="137">
            64 -8 45 callsubr
            return
          </CharString>
          <CharString index="138">
            275 -8 69 -211 return
          </CharString>
          <CharString index="139">
            102 hintmask 11111010
            390 255 rmoveto
            189 -4 74 -164 -169 -12 -80 -184 -189 14 -73 174 return
          </CharString>
          <CharString index="140">
            80 hvcurveto
            -63 hlineto
            -33 -1 -11 -25 -19 -24 7 7 -26 vhcurveto
            hintmask 10101100
            10 -33 -37 10 -35 hhcurveto
            -76 -4 -43 return
          </CharString>
          <CharString index="141">
            -34 72 callsubr
            45 352 vstem
            397 hmoveto
            696 vlineto
            -207 -145 -143 -205 return
          </CharString>
          <CharString index="142">
            rmoveto
            -52 vlineto
            115 14 35 133 hvcurveto
            88 -119 -117 44 -16 vlineto
            -57 -8 -14 -46 vhcurveto
            endchar
          </CharString>
          <CharString index="143">
            -107 callgsubr
            132 return
          </CharString>
          <CharString index="144">
            -5 -688 rmoveto
            129 58 hlineto
            75 -28 347 0 vhcurveto
            -73 hlineto
            0 -28 -347 -75 vvcurveto
            endchar
          </CharString>
          <CharString index="145">
            -7 32 57 -5 48 hhcurveto
            return
          </CharString>
          <CharString index="146">
            137 callsubr
            -281 63 -38 -30 callgsubr
            -34 64 hintmask 10110010
            23 return
          </CharString>
          <CharString index="147">
            -48 callgsubr
            -56 48 56 144 104 callsubr
            -2 69 hintmask 11011100
            return
          </CharString>
          <CharString index="148">
            -13 callsubr
            -289 -187 289 -112 -688 112 294 187 hlineto
            return
          </CharString>
          <CharString index="149">
            -193 85 129 108 callsubr
            return
          </CharString>
          <CharString index="150">
            89 -8 101 548 47 0 -20 return
          </CharString>
          <CharString index="151">
            144 71 callgsubr
            return
          </CharString>
          <CharString index="152">
            98 200 100 205 101 return
          </CharString>
          <CharString index="153">
            154 -3 91 -36 51 vhcurveto
            return
          </CharString>
          <CharString index="154">
            4 -64 rlineto
            97 463 hlineto
            return
          </CharString>
          <CharString index="155">
            25 -193 85 129 97 callgsubr
            hintmask 11001110
            return
          </CharString>
          <CharString index="156">
            rmoveto
            99 9 37 131 131 -9 38 -99 -98 -10 -38 -131 -131 10 -37 98 hvcurveto
            return
          </CharString>
          <CharString index="157">
            -127 236 98 hstem
            51 202 vstem
            51 236 -51 callgsubr
            endchar
          </CharString>
          <CharString index="158">
            rmoveto
            117 callsubr
            53 -19 24 -30 11 hvcurveto
            4 vlineto
            return
          </CharString>
          <CharString index="159">
            rmoveto
            76 hlineto
            38 192 9 122 rlineto
            -102 hlineto
            return
          </CharString>
          <CharString index="160">
            119 callgsubr
            342 92 return
          </CharString>
          <CharString index="161">
            -53 callgsubr
            81 -4 callgsubr
            return
          </CharString>
          <CharString index="162">
            hstemhm
            -9 callsubr
            return
          </CharString>
          <CharString index="163">
            65 207 77 hstemhm
            -256 68 17 71 16 79 -70 68 79 callsubr
            -171 return
          </CharString>
          <CharString index="164">
            64 318 rlineto
            7 hlineto
            endchar
          </CharString>
          <CharString index="165">
            79 callgsubr
            -288 56 callgsubr
            hintmask 10111000
            16 return
          </CharString>
          <CharString index="166">
            3 -18 -21 1 -24 128 callsubr
            -117 4 -68 33 -38 hvcurveto
            return
          </CharString>
          <CharString index="167">
            rmoveto
            56 12 -12 -116 hvcurveto
            -141 hlineto
            112 1 8 16 64 hhcurveto
            endchar
          </CharString>
          <CharString index="168">
            877 -74 callgsubr
            return
          </CharString>
          <CharString index="169">
            117 hstem
            53 119 vstem
            return
          </CharString>
          <CharString index="170">
            55 hmoveto
            106 743 -106 hlineto
            return
          </CharString>
          <CharString index="171">
            -21 256 100 231 101 return
          </CharString>
          <CharString index="172">
            106 -28 callgsubr
            return
          </CharString>
          <CharString index="173">
            41 120 callsubr
            return
          </CharString>
          <CharString index="174">
            -190 rmoveto
            97 hlineto
            38 193 rlineto
            5 -72 vlineto
            -63 -193 rlineto
            endchar
          </CharString>
          <CharString index="175">
            125 hstem
            -296 285 vstem
            return
          </CharString>
          <CharString index="176">
            rmoveto
            17 callsubr
            return
          </CharString>
          <CharString index="177">
            rmoveto
            111 callsubr
            return
          </CharString>
          <CharString index="178">
            0 60 568 60 hstem
            return
          </CharString>
          <CharString index="179">
            21 -21 696 -20 hstem
            return
          </CharString>
          <CharString index="180">
            hstemhm
            30 106 134 106 return
          </CharString>
          <CharString index="181">
            65 55 callsubr
            -23 -30 callgsubr
            -23 -21 callgsubr
            hintmask 11101100
            return
          </CharString>
          <CharString index="182">
            -169 -12 -80 -184 -189 14 -73 174 53 62 7 9 33 return
          </CharString>
          <CharString index="183">
            452 259 90 hstem
            55 773 vstem
            return
          </CharString>
          <CharString index="184">
            -21 584 104 hstem
            155 -41 callgsubr
            return
          </CharString>
          <CharString index="185">
            393 rmoveto
            119 117 -119 hlineto
            return
          </CharString>
          <CharString index="186">
            hintmask 00000000
            hintmask 11110100
            return
          </CharString>
          <CharString index="187">
            68 93 69 90 68 hstemhm
            33 110 callgsubr
            hintmask 11110100
            155 return
          </CharString>
          <CharString index="188">
            64 -692 -17 callgsubr
            return
          </CharString>
          <CharString index="189">
            rmoveto
            77 hlineto
            -75 197 75 199 rlineto
            -77 hlineto
            -92 -199 rlineto
            return
          </CharString>
          <CharString index="190">
            hstem
            55 106 vstem
            return
          </CharString>
          <CharString index="191">
            65 hstemhm
            41 106 -56 -30 callgsubr
            -52 102 hintmask 00000000
            hintmask 11110110
            return
          </CharString>
          <CharString index="192">
            134 153 77 hstemhm
            -111 71 16 79 hintmask 11100000
            -111 return
          </CharString>
          <CharString index="193">
            1061 -94 callsubr
            return
          </CharString>
          <CharString index="194">
            -157 3 -91 38 -51 vhcurveto
            -41 -100 rlineto
            95 hlineto
            23 55 rlineto
            return
          </CharString>
          <CharString index="195">
            70 380 -53 hlineto
            -83 -42 rlineto
            -75 vlineto
            66 26 rlineto
            endchar
          </CharString>
          <CharString index="196">
            hstem
            -9 callsubr
            192 -41 callgsubr
            return
          </CharString>
          <CharString index="197">
            -21 405 113 -8 -20 return
          </CharString>
          <CharString index="198">
            112 callsubr
            68 return
          </CharString>
          <CharString index="199">
            -63 callgsubr
            hstem
            return
          </CharString>
          <CharString index="200">
            144 -5 callsubr
            return
          </CharString>
          <CharString index="201">
            104 -63 callgsubr
            return
          </CharString>
          <CharString index="202">
            -4 88 rlineto
            -97 hlineto
            return
          </CharString>
          <CharString index="203">
            32 callgsubr
            -85 vlineto
            137 36 14 163 hvcurveto
            return
          </CharString>
          <CharString index="204">
            -11 callsubr
            vhcurveto
            80 -26 hlineto
            -48 -6 -27 -10 -12 vhcurveto
            return
          </CharString>
          <CharString index="205">
            61 434 rmoveto
            76 hlineto
            13 192 rlineto
            62 -102 -62 vlineto
            return
          </CharString>
          <CharString index="206">
            hstem
            24 102 vstem
            24 274 rmoveto
            76 hlineto
            26 246 rlineto
            return
          </CharString>
          <CharString index="207">
            -233 434 254 hstemhm
            48 102 hintmask 00000000
            hintmask 11000000
            return
          </CharString>
          <CharString index="208">
            414 -8 99 -91 92 326 92 -90 35 -35 98 return
          </CharString>
          <CharString index="209">
            69 107 69 74 69 hstem
            33 72 93 72 vstem
            154 return
          </CharString>
          <CharString index="210">
            -72 4 -33 114 vhcurveto
            55 vmoveto
            -48 -1 11 39 hvcurveto
            return
          </CharString>
          <CharString index="211">
            55 callsubr
            203 112 return
          </CharString>
          <CharString index="212">
            -743 -31 callsubr
            return
          </CharString>
          <CharString index="213">
            25 142 callgsubr
            32 -32 100 return
          </CharString>
          <CharString index="214">
            -8 101 204 101 197 101 return
          </CharString>
          <CharString index="215">
            -10 callgsubr
            144 109 return
          </CharString>
          <CharString index="216">
            60 60 60 60 60 return
          </CharString>
          <CharString index="217">
            0 100 487 101 return
          </CharString>
          <CharString index="218">
            -49 vlineto
            109 13 return
          </CharString>
          <CharString index="219">
            -5 callsubr
            -34 return
          </CharString>
          <CharString index="220">
            114 20 119 -109 99 hintmask 00000000
            hintmask 11010000
            return
          </CharString>
          <CharString index="221">
            55 101 55 hstem
            -245 69 100 69 vstem
            -127 return
          </CharString>
          <CharString index="222">
            64 callgsubr
            371 47 0 -20 return
          </CharString>
          <CharString index="223">
            -40 8 callgsubr
            return
          </CharString>
          <CharString index="224">
            69 callgsubr
            90 25 34 74 return
          </CharString>
          <CharString index="225">
            hstem
            33 106 103 106 vstem
            return
          </CharString>
          <CharString index="226">
            -82 -53 callgsubr
            return
          </CharString>
          <CharString index="227">
            106 148 106 return
          </CharString>
          <CharString index="228">
            -100 9 -9 164 rlineto
            -74 hlineto
            -8 -164 return
          </CharString>
          <CharString index="229">
            259 0 100 58 100 38 101 190 101 return
          </CharString>
          <CharString index="230">
            54 callsubr
            41 106 return
          </CharString>
          <CharString index="231">
            -20 109 144 -7 callgsubr
            return
          </CharString>
          <CharString index="232">
            68 247 69 hstem
            32 71 81 71 vstem
            103 return
          </CharString>
          <CharString index="233">
            468 0 92 -92 101 317 92 77 101 return
          </CharString>
          <CharString index="234">
            -197 -161 904 hstem
            68 98 vstem
            68 return
          </CharString>
          <CharString index="235">
            hhcurveto
            -167 -13 -53 -210 return
          </CharString>
          <CharString index="236">
            25 19 24 -7 -7 26 vhcurveto
            return
          </CharString>
          <CharString index="237">
            33 37 -10 35 hhcurveto
            75 4 return
          </CharString>
          <CharString index="238">
            vmoveto
            346 90 -346 hlineto
            return
          </CharString>
          <CharString index="239">
            -21 253 101 233 101 return
          </CharString>
          <CharString index="240">
            hstem
            63 -41 callgsubr
            return
          </CharString>
          <CharString index="241">
            hintmask 00111100
            -79 callsubr
            return
          </CharString>
          <CharString index="242">
            11 -8 92 -67 -21 430 92 -4 -20 return
          </CharString>
          <CharString index="243">
            110 2 3 37 37 2 -3 -110 return
          </CharString>
          <CharString index="244">
            65 112 -84 callsubr
            return
          </CharString>
          <CharString index="245">
            786 -73 callsubr
            return
          </CharString>
          <CharString index="246">
            70 callsubr
            34 127 hvcurveto
            return
          </CharString>
          <CharString index="247">
            -86 -245 rlineto
            -54 135 vlineto
            endchar
          </CharString>
          <CharString index="248">
            -91 -246 rlineto
            -59 148 vlineto
            endchar
          </CharString>
        <CharString name=".notdef">
          69 0 50 49 70 383 50 48 50 hstemhm
          0 50 49 53 73 60 -56 53 57 54 57 50 hintmask 1111110111000000
          0 vmoveto
          500 700 -500 hlineto
          450 -50 rmoveto
          -600 -400 600 vlineto
          179 -435 rmoveto
          53 53 hlineto
          33 21 18 23 19 vhcurveto
          30 26 37 36 67 vvcurveto
          12 -3 123 -140 -140 -11 -124 -23 -11 2 -13 2 -7 vhcurveto
          49 28 hlineto
          23 8 77 90 77 12 -59 -28 -51 -28 -24 -28 -23 vhcurveto
          -28 -23 -26 -23 -43 vvcurveto
          hintmask 1111111011000000
          -4 -179 rmoveto
          60 70 -60 hlineto
          endchar
        </CharString>
        <CharString name="A">
          -76 callgsubr
          hstem
          12 481 vstem
          378 hmoveto
          -104 callgsubr
          endchar
        </CharString>
        <CharString name="A.ss01">
          -75 callsubr
          -37 callsubr
          351 hmoveto
          -106 callsubr
          endchar
        </CharString>
        <CharString name="AE">
          122 callsubr
          hstem
          -9 661 vstem
          354 hmoveto
          -20 callgsubr
        </CharString>
        <CharString name="AEacute">
          122 callsubr
          56 -4 callgsubr
          -9 661 vstem
          289 744 -102 callgsubr
          65 -749 rmoveto
          -20 callgsubr
        </CharString>
        <CharString name="Aacute">
          -76 callgsubr
          62 -4 callgsubr
          12 481 vstem
          197 750 -102 callgsubr
          181 -755 rmoveto
          -104 callgsubr
          endchar
        </CharString>
        <CharString name="Aacute.ss01">
          -75 callsubr
          53 144 -37 callsubr
          213 749 -102 callgsubr
          138 -754 rmoveto
          -106 callsubr
          endchar
        </CharString>
        <CharString name="Abreve">
          -76 callgsubr
          62 65 hstem
          128 -30 callgsubr
          vstem
          377 -81 callgsubr
          1 -888 rmoveto
          -104 callgsubr
          endchar
        </CharString>
        <CharString name="Abreve.ss01">
          -75 callsubr
          54 85 callgsubr
          hintmask 11110110
          384 21 callgsubr
          -33 -888 rmoveto
          -106 callsubr
          endchar
        </CharString>
        <CharString name="Acircumflex">
          -76 callgsubr
          62 134 hstem
          12 481 vstem
          121 750 -107 callgsubr
          257 -757 rmoveto
          -104 callgsubr
          endchar
        </CharString>
        <CharString name="Acircumflex.ss01">
          -75 callsubr
          53 134 -37 callsubr
          129 749 -107 callgsubr
          222 -756 rmoveto
          -106 callsubr
          endchar
        </CharString>
        <CharString name="Adieresis">
          -76 callgsubr
          93 94 hstem
          117 95 81 95 vstem
          117 781 -89 callgsubr
          85 -875 rmoveto
          -104 callgsubr
          endchar
        </CharString>
        <CharString name="Adieresis.ss01">
          -75 callsubr
          78 94 -5 callsubr
          -42 95 81 95 -47 -21 callgsubr
          hintmask 11110110
          127 774 -89 callgsubr
          hintmask 11111001
          48 -868 rmoveto
          -106 callsubr
          endchar
        </CharString>
        <CharString name="Agrave">
          -76 callgsubr
          62 -4 callgsubr
          12 481 vstem
          224 750 -93 callsubr
          233 -889 rmoveto
          -104 callgsubr
          endchar
        </CharString>
        <CharString name="Agrave.ss01">
          -75 callsubr
          53 144 -37 callsubr
          225 749 -93 callsubr
          205 -888 rmoveto
          -106 callsubr
          endchar
        </CharString>
        <CharString name="Amacron">
          -76 callgsubr
          102 98 hstem
          152 202 vstem
          152 790 -51 callgsubr
          226 -888 rmoveto
          -104 callgsubr
          endchar
        </CharString>
        <CharString name="Amacron.ss01">
          -75 callsubr
          94 98 -5 callsubr
          -10 202 -10 112 79 callsubr
          159 790 -51 callgsubr
          hintmask 11111010
          192 -888 rmoveto
          -106 callsubr
          endchar
        </CharString>
        <CharString name="Aogonek">
          74 -196 64 153 -71 callgsubr
          hstem
          323 86 vstem
          409 -93 rmoveto
          32 28 40 22 21 vhcurveto
          34 hlineto
          -160 688 rlineto
          -161 hlineto
          -160 -688 115 callgsubr
          -156 rlineto
          -32 -34 -23 -43 -39 8 callgsubr
          62 vlineto
          -1 -3 -6 0 -5 hhcurveto
          -33 -9 17 22 hvcurveto
          -229 351 rmoveto
          68 319 rlineto
          6 hlineto
          66 -319 rlineto
          endchar
        </CharString>
        <CharString name="Aogonek.ss01">
          89 -196 64 153 -21 213 103 279 101 -5 callsubr
          126 86 -30 112 hintmask 11111010
          431 hmoveto
          32 385 hlineto
          243 -14 68 -189 -189 -14 -68 -243 vhcurveto
          -385 112 213 182 -210 vlineto
          hintmask 11111100
          -32 -34 -24 -43 116 callsubr
          139 callgsubr
          hintmask 11111010
          32 28 40 22 21 vhcurveto
          -262 316 rmoveto
          111 vlineto
          147 4 21 87 86 5 -21 -147 vhcurveto
          -111 vlineto
          endchar
        </CharString>
        <CharString name="Aring">
          74 21 -6 callsubr
          574 55 hstem
          133 69 100 69 vstem
          333 687 -47 callsubr
        </CharString>
        <CharString name="Aring.ss01">
          -75 callsubr
          36 55 101 55 -5 callsubr
          -26 69 100 69 -30 65 callgsubr
          hintmask 1111101100000000
          261 732 -85 callgsubr
          hintmask 1111110010000000
          90 -787 rmoveto
          -106 callsubr
          endchar
        </CharString>
        <CharString name="Aringacute">
          74 21 -6 callsubr
          574 55 56 -4 callgsubr
          133 69 100 69 vstem
          359 1082 -61 callsubr
          54 -256 -47 callsubr
        </CharString>
        <CharString name="Aringacute.ss01">
          -75 callsubr
          27 55 101 55 26 93 callsubr
          -28 69 100 69 -28 65 callgsubr
          hintmask 1111110110000000
          206 960 -102 callgsubr
          53 -242 rmoveto
          116 4 33 72 hvcurveto
          hintmask 1110100110000000
          72 -4 34 -116 -114 -4 -34 -72 vhcurveto
          hintmask 1111110110000000
          103 callsubr
          hintmask 1110100110000000
          39 1 12 48 50 1 -12 -39 vhcurveto
          hintmask 1111110110000000
          -39 -1 -11 -50 vhcurveto
          hintmask 1110101001000000
          92 -778 rmoveto
          -106 callsubr
          endchar
        </CharString>
        <CharString name="Atilde">
          -76 callgsubr
          62 -84 callsubr
          100 56 callgsubr
          hintmask 11101110
          404 884 -94 callsubr
          hintmask 11110110
          -101 callsubr
          hintmask 11101110
          -95 callsubr
          -26 -884 rmoveto
          -104 callgsubr
          endchar
        </CharString>
        <CharString name="Atilde.ss01">
          -75 callsubr
          54 38 callgsubr
          -60 56 callgsubr
          -62 65 callgsubr
          hintmask 1110110100000000
          413 884 -94 callsubr
          hintmask 1111001010000000
          -101 callsubr
          hintmask 1110110100000000
          -95 callsubr
          hintmask 1110010010000000
          -62 -884 rmoveto
          -106 callsubr
          endchar
        </CharString>
        <CharString name="B">
          67 0 100 197 102 188 101 -18 callsubr
          167 113 -107 113 hintmask 11110100
          61 hmoveto
          229 hlineto
          131 38 73 110 99 -26 49 -76 18 hvcurveto
          4 vlineto
          hintmask 11111000
          66 16 30 50 96 vvcurveto
          113 -49 60 -113 vhcurveto
          -230 hlineto
          198 -289 rmoveto
          -86 188 86 hlineto
          66 15 -18 -76 -73 -21 -21 -60 hvcurveto
          hintmask 11110100
          5 -299 rmoveto
          -91 197 91 hlineto
          64 18 -20 -80 -78 -16 -19 -66 hvcurveto
          endchar
        </CharString>
        <CharString name="C">
          -25 -57 callgsubr
          hstem
          47 -41 callgsubr
          375 8 -87 callsubr
        </CharString>
        <CharString name="Cacute">
          -25 -57 callgsubr
          48 -4 callgsubr
          47 -41 callgsubr
          147 744 -102 callgsubr
          228 -741 -87 callsubr
        </CharString>
        <CharString name="Cacute.loclPLK">
          -25 -57 callgsubr
          48 -4 callgsubr
          47 -41 callgsubr
          147 744 -70 callgsubr
          228 -741 -87 callsubr
        </CharString>
        <CharString name="Ccaron">
          -25 -57 callgsubr
          57 135 hstem
          47 -41 callgsubr
          148 753 -100 callsubr
          304 -873 -87 callsubr
        </CharString>
        <CharString name="Ccedilla">
          -25 -57 callgsubr
          hstem
          47 -41 callgsubr
          280 93 rmoveto
          -113 -8 21 230 230 8 21 113 23 35 -3 -5 35 hvcurveto
          93 vlineto
          9 -24 -48 7 -43 hhcurveto
          -184 -27 -73 -279 -226 16 -91 105 -26 hvcurveto
          -61 -186 rlineto
          -5 97 vlineto
          36 182 rlineto
          18 hlineto
          40 49 7 9 28 hvcurveto
          93 vlineto
          -5 -27 -39 -3 -29 hhcurveto
          endchar
        </CharString>
        <CharString name="Ccircumflex">
          -25 -57 callgsubr
          58 134 hstem
          47 -41 callgsubr
          71 754 -107 callgsubr
          304 -753 -87 callsubr
        </CharString>
        <CharString name="Cdotaccent">
          -25 -57 callgsubr
          85 94 55 callsubr
          -4 95 hintmask 00000000
          hintmask 11101000
          155 18 callsubr
          220 -867 rmoveto
          93 vlineto
          -5 -27 -39 -3 -29 hhcurveto
          hintmask 11110000
          -113 -8 21 230 230 8 21 113 23 35 -3 -5 35 hvcurveto
          93 vlineto
          9 -24 -48 7 -43 hhcurveto
          -184 -27 -73 -279 -280 25 -72 186 hvcurveto
          hintmask 11101000
          40 49 7 9 28 hvcurveto
          endchar
        </CharString>
        <CharString name="D">
          75 0 101 486 101 hstem
          61 112 174 112 vstem
          61 hmoveto
          -39 callgsubr
          endchar
        </CharString>
        <CharString name="Dcaron">
          75 0 101 486 101 65 135 -29 callgsubr
          198 753 -100 callsubr
          -60 -881 rmoveto
          -39 callgsubr
          endchar
        </CharString>
        <CharString name="Dcroat">
          -37 callgsubr
        </CharString>
        <CharString name="E">
          -62 callgsubr
          hstem
          61 -41 callgsubr
          61 hmoveto
          -93 callgsubr
        </CharString>
        <CharString name="Eacute">
          -62 callgsubr
          62 -4 callgsubr
          61 -41 callgsubr
          190 750 -102 callgsubr
          -129 -755 rmoveto
          -93 callgsubr
        </CharString>
        <CharString name="Ebreve">
          -62 callgsubr
          62 65 -18 callsubr
          -69 -30 callgsubr
          hintmask 11111010
          353 888 rmoveto
          -68 hlineto
          -46 -2 -27 -56 vhcurveto
          hintmask 11110110
          -55 0 27 46 hvcurveto
          -68 hlineto
          -81 10 -57 113 vhcurveto
          hintmask 11111010
          -65 callgsubr
          hvcurveto
          -292 -888 rmoveto
          -93 callgsubr
        </CharString>
        <CharString name="Ecaron">
          -62 callgsubr
          65 135 hstem
          61 -41 callgsubr
          174 753 -100 callsubr
          -36 -881 rmoveto
          -93 callgsubr
        </CharString>
        <CharString name="Ecircumflex">
          -62 callgsubr
          62 134 hstem
          61 -41 callgsubr
          95 750 -107 callgsubr
          -34 -757 rmoveto
          -93 callgsubr
        </CharString>
        <CharString name="Edieresis">
          -62 callgsubr
          93 94 -18 callsubr
          -81 95 81 95 hintmask 00000000
          hintmask 11110110
          92 781 -89 callgsubr
          hintmask 11111010
          -207 -875 rmoveto
          -93 callgsubr
        </CharString>
        <CharString name="Edotaccent">
          -62 callgsubr
          93 94 -18 callsubr
          8 95 hintmask 00000000
          hintmask 11111100
          181 18 callsubr
          hintmask 11111000
          -120 -875 rmoveto
          -93 callgsubr
        </CharString>
        <CharString name="Egrave">
          -62 callgsubr
          62 -4 callgsubr
          61 -41 callgsubr
          199 750 -93 callsubr
          -59 -889 rmoveto
          -93 callgsubr
        </CharString>
        <CharString name="Emacron">
          -62 callgsubr
          102 98 -18 callsubr
          -45 202 79 callsubr
          128 790 -51 callgsubr
          hintmask 11111000
          -67 -888 rmoveto
          -93 callgsubr
        </CharString>
        <CharString name="Eng">
          6 callsubr
          -688 108 434 4 hlineto
          193 -427 rlineto
          -62 vlineto
          96 callsubr
          704 vlineto
          endchar
        </CharString>
        <CharString name="Eogonek">
          3 -196 64 132 101 196 101 189 101 hstem
          61 112 76 86 vstem
          346 82 callgsubr
          -29 -11 17 20 36 35 41 26 18 hvcurveto
          101 -223 196 193 101 -193 189 223 101 -335 -688 251 vlineto
          -33 -31 -30 -39 -47 vvcurveto
          -40 22 -39 75 vhcurveto
          endchar
        </CharString>
        <CharString name="Eth">
          -37 callgsubr
        </CharString>
        <CharString name="Euro">
          21 -8 101 143 65 88 65 141 101 hstemhm
          86 114 -111 112 hintmask 11111000
          296 -8 rmoveto
          38 48 6 9 31 hvcurveto
          94 vlineto
          -5 -27 -38 -3 -29 hhcurveto
          -91 -22 14 129 -5 hvcurveto
          174 65 -175 88 175 65 hlineto
          hintmask 11110100
          -174 hlineto
          127 5 22 14 91 hhcurveto
          22 35 -3 -5 35 hvcurveto
          93 vlineto
          9 -24 -48 7 -43 hhcurveto
          -156 -42 -56 -186 -9 hvcurveto
          -62 -65 hlineto
          hintmask 11111000
          59 -88 hlineto
          hintmask 11110100
          -59 -65 hlineto
          hintmask 11111000
          61 hlineto
          -193 9 40 -51 159 hhcurveto
          endchar
        </CharString>
        <CharString name="F">
          -26 21 -21 281 101 205 101 hstem
          61 -41 callgsubr
          61 hmoveto
          112 281 184 101 -184 205 207 101 -319 hlineto
          endchar
        </CharString>
        <CharString name="G">
          30 callsubr
          54 callgsubr
          332 290 -97 callsubr
          endchar
        </CharString>
        <CharString name="G.ss01">
          14 callgsubr
          89 callsubr
          268 -8 -96 callgsubr
          endchar
        </CharString>
        <CharString name="G_tilde.loclGUA">
          30 callsubr
          58 -84 callsubr
          47 112 -63 63 173 109 -105 133 callgsubr
          hintmask 1110110010000000
          400 2 callgsubr
          hintmask 1111001100000000
          -101 callsubr
          96 callgsubr
          hintmask 1110010100000000
          -68 -598 -97 callsubr
          endchar
        </CharString>
        <CharString name="Gbreve">
          30 callsubr
          54 65 55 callsubr
          -36 -30 callgsubr
          -40 109 hintmask 00000000
          hintmask 11110110
          372 21 callgsubr
          -40 -598 -97 callsubr
          endchar
        </CharString>
        <CharString name="Gbreve.ss01">
          14 callgsubr
          54 65 55 callsubr
          -30 -30 callgsubr
          -27 -21 callgsubr
          hintmask 11110110
          378 21 callgsubr
          -110 -896 -96 callgsubr
          endchar
        </CharString>
        <CharString name="Gcaron">
          30 callsubr
          57 135 54 callgsubr
          193 753 -100 callsubr
          216 -591 -97 callsubr
          endchar
        </CharString>
        <CharString name="Gcaron.ss01">
          14 callgsubr
          57 135 89 callsubr
          199 753 -100 callsubr
          146 -889 -96 callgsubr
          endchar
        </CharString>
        <CharString name="Gcircumflex">
          30 callsubr
          58 134 54 callgsubr
          116 754 -107 callgsubr
          216 -471 -97 callsubr
          endchar
        </CharString>
        <CharString name="Gcircumflex.ss01">
          14 callgsubr
          58 134 89 callsubr
          122 754 -107 callgsubr
          146 -769 -96 callgsubr
          endchar
        </CharString>
        <CharString name="Gcommaaccent">
          64 132 callgsubr
          45 callsubr
          55 callsubr
          37 113 23 109 hintmask 11111101
          332 290 -97 callsubr
          hintmask 11111111
          -67 -530 -90 callgsubr
        </CharString>
        <CharString name="Gcommaaccent.ss01">
          77 132 callgsubr
          46 callgsubr
          hstem
          -9 callsubr
          43 113 36 -41 callgsubr
          268 -8 -96 callgsubr
          -75 -232 -90 callgsubr
        </CharString>
        <CharString name="Gdotaccent">
          30 callsubr
          85 94 hstem
          -9 callsubr
          41 95 37 109 vstem
          200 18 callsubr
          132 -585 -97 callsubr
          endchar
        </CharString>
        <CharString name="Gdotaccent.ss01">
          14 callgsubr
          85 94 hstem
          -9 callsubr
          47 95 50 -41 callgsubr
          206 18 callsubr
          62 -883 -96 callgsubr
          endchar
        </CharString>
        <CharString name="Gtilde.loclGUA.ss01">
          14 callgsubr
          58 -84 callsubr
          47 112 -57 56 callgsubr
          -55 65 callgsubr
          hintmask 1110110100000000
          406 2 callgsubr
          hintmask 1111001010000000
          -101 callsubr
          hintmask 1110110100000000
          -95 callsubr
          hintmask 1110010010000000
          -138 -896 -96 callgsubr
          endchar
        </CharString>
        <CharString name="H">
          102 21 -21 294 105 289 -20 hstem
          61 112 187 21 callsubr
          endchar
        </CharString>
        <CharString name="Hbar">
          102 21 -21 254 105 113 98 -98 216 -18 callsubr
          187 112 hintmask 11011100
          360 688 rmoveto
          hintmask 11101100
          -118 -187 vlineto
          hintmask 11011100
          118 -112 -688 112 254 187 -254 74 callgsubr
          vlineto
          -299 -329 rmoveto
          113 187 -113 vlineto
          endchar
        </CharString>
        <CharString name="Hcircumflex">
          102 21 -21 294 105 289 -20 86 134 hstem
          61 112 187 -41 callgsubr
          135 754 -107 callgsubr
          225 -761 rmoveto
          41 callsubr
          endchar
        </CharString>
        <CharString name="I">
          -16 callgsubr
          133 callsubr
          63 hmoveto
          -34 callgsubr
        </CharString>
        <CharString name="IJ">
          91 130 callgsubr
          hstemhm
          63 112 177 112 hintmask 01111000
          63 hmoveto
          -33 callsubr
          hintmask 10111000
          189 -593 -68 callgsubr
        </CharString>
        <CharString name="Iacute">
          -16 callgsubr
          82 144 133 callsubr
          66 750 -102 callgsubr
          -3 -755 -38 callsubr
        </CharString>
        <CharString name="Iacute_J.loclNLD">
          91 130 callgsubr
          76 144 hstemhm
          63 112 177 112 hintmask 01111100
          63 744 -102 callgsubr
          289 -5 -102 callgsubr
          -289 -749 rmoveto
          -33 callsubr
          hintmask 10111100
          189 -593 -68 callgsubr
        </CharString>
        <CharString name="Ibreve">
          -16 callgsubr
          82 101 callgsubr
          243 -81 callgsubr
          hintmask 11101000
          -180 118 callgsubr
        </CharString>
        <CharString name="Icircumflex">
          -16 callgsubr
          82 134 133 callsubr
          -13 750 -107 callgsubr
          76 -757 -38 callsubr
        </CharString>
        <CharString name="Idieresis">
          -16 callgsubr
          113 94 hstemhm
          -16 95 -16 112 -15 95 79 callsubr
          -16 781 -89 callgsubr
          hintmask 11101000
          -97 -875 -38 callsubr
        </CharString>
        <CharString name="Idotaccent">
          -16 callgsubr
          113 94 hstemhm
          63 112 -104 95 hintmask 00000000
          hintmask 11101000
          71 18 callsubr
          hintmask 11110000
          -8 -875 -38 callsubr
        </CharString>
        <CharString name="Igrave">
          -16 callgsubr
          82 144 133 callsubr
          90 750 -93 callsubr
          52 -889 -38 callsubr
        </CharString>
        <CharString name="Imacron">
          -16 callgsubr
          122 98 133 callsubr
          18 790 -51 callgsubr
          45 118 callgsubr
        </CharString>
        <CharString name="Iogonek">
          -193 -196 64 153 -45 callsubr
          hstemhm
          34 86 -57 112 hintmask 11101000
          130 -196 rmoveto
          13 15 1 2 18 hvcurveto
          62 vlineto
          -1 -4 -5 0 -5 hhcurveto
          -33 -9 17 22 33 32 42 23 18 hvcurveto
          688 -112 -688 vlineto
          hintmask 11110000
          28 hlineto
          -33 -33 -24 -42 -39 vvcurveto
          hintmask 11101000
          -44 22 -38 74 vhcurveto
          endchar
        </CharString>
        <CharString name="Itilde">
          -16 callgsubr
          86 -84 callsubr
          -33 63 33 112 32 64 hintmask 11011110
          271 -23 callsubr
          688 -112 hlineto
          endchar
        </CharString>
        <CharString name="J">
          -147 0 95 593 -20 hstemhm
          114 -21 callgsubr
          hintmask 11100000
          14 95 -68 callgsubr
        </CharString>
        <CharString name="Jcircumflex">
          -147 130 callgsubr
          86 134 hstemhm
          114 112 hintmask 01111000
          38 754 -107 callgsubr
          hintmask 10111000
          -24 -666 -68 callgsubr
        </CharString>
        <CharString name="K">
          65 21 -21 299 100 289 -20 hstem
          61 -41 callgsubr
          6 callgsubr
          endchar
        </CharString>
        <CharString name="Kcommaaccent">
          65 -24 callgsubr
          83 -21 299 100 289 -20 -18 callsubr
          23 113 hintmask 11111100
          6 callgsubr
          hintmask 11111110
          -43 -539 -90 callgsubr
        </CharString>
        <CharString name="L">
          -44 0 104 584 -20 hstem
          61 -41 callgsubr
          2 callsubr
          endchar
        </CharString>
        <CharString name="Lacute">
          -44 0 104 584 -20 76 -4 callgsubr
          61 -41 callgsubr
          61 744 -102 callgsubr
          -749 vmoveto
          310 104 -198 584 -112 hlineto
          endchar
        </CharString>
        <CharString name="Lcaron">
          -44 0 104 330 254 0 -20 -18 callsubr
          106 102 hintmask 10111000
          2 callsubr
          hintmask 11011000
          201 -254 9 callgsubr
          endchar
        </CharString>
        <CharString name="Lcommaaccent">
          -44 -24 callgsubr
          62 104 584 -20 -18 callsubr
          -19 113 hintmask 11111000
          2 callsubr
          hintmask 11110100
          84 -928 -90 callgsubr
        </CharString>
        <CharString name="Ldot">
          -44 0 104 187 117 280 -20 hstem
          61 112 93 119 vstem
          2 callsubr
          205 -397 -94 callgsubr
        </CharString>
        <CharString name="Lslash">
          -44 0 104 584 -20 hstem
          61 -41 callgsubr
          173 104 rmoveto
          205 vlineto
          121 45 rlineto
          94 vlineto
          -121 -46 rlineto
          286 -112 -328 vlineto
          -46 -17 rlineto
          -93 vlineto
          46 17 rlineto
          -267 310 104 vlineto
          endchar
        </CharString>
        <CharString name="M">
          268 0 181 -160 -21 525 163 hstemhm
          61 106 362 109 hintmask 01111000
          529 hmoveto
          109 688 -169 hlineto
          hintmask 10111000
          -115 -507 rlineto
          -6 hlineto
          -115 507 rlineto
          -172 -688 106 525 6 hlineto
          121 -525 rlineto
          108 hlineto
          122 525 rlineto
          5 hlineto
          endchar
        </CharString>
        <CharString name="N">
          104 92 callsubr
          9 callsubr
          vstem
          26 callsubr
          endchar
        </CharString>
        <CharString name="Nacute">
          94 callsubr
          76 -4 callgsubr
          9 callsubr
          vstem
          212 744 -102 callgsubr
          157 -749 rmoveto
          -77 callgsubr
          endchar
        </CharString>
        <CharString name="Nacute.loclPLK">
          94 callsubr
          76 -4 callgsubr
          9 callsubr
          vstem
          212 744 -70 callgsubr
          157 -749 rmoveto
          -77 callgsubr
          endchar
        </CharString>
        <CharString name="Ncaron">
          94 callsubr
          85 135 hstem
          9 callsubr
          vstem
          213 753 -100 callsubr
          233 -881 rmoveto
          -77 callgsubr
          endchar
        </CharString>
        <CharString name="Ncommaaccent">
          104 -24 callgsubr
          83 -45 callsubr
          hstem
          61 108 47 113 37 108 vstem
          26 callsubr
          34 -674 -90 callgsubr
        </CharString>
        <CharString name="Ntilde">
          94 callsubr
          83 -84 callsubr
          61 108 -54 56 callgsubr
          -53 108 hintmask 00000000
          hintmask 11011010
          419 885 -94 callsubr
          hintmask 11100101
          -101 callsubr
          hintmask 11011010
          -95 callsubr
          -50 -885 rmoveto
          hintmask 11011001
          -77 callgsubr
          endchar
        </CharString>
        <CharString name="O">
          -48 callgsubr
          -19 callsubr
          260 -8 -103 callsubr
          endchar
        </CharString>
        <CharString name="OE">
          308 0 100 196 101 190 101 hstem
          46 113 202 113 vstem
          260 hmoveto
          440 100 -196 hlineto
          -17 -25 -3 -4 -16 hvcurveto
          21 47 6 65 1 91 rrcurveto
          196 101 -196 hlineto
          -1 87 -7 64 -19 45 rrcurveto
          -4 13 22 -2 22 hhcurveto
          196 101 -440 hlineto
          -205 -9 -71 -273 -274 9 -70 205 hvcurveto
          100 vmoveto
          -95 -6 7 237 237 6 6 95 95 6 -7 -236 -237 -6 -7 -95 hvcurveto
          endchar
        </CharString>
        <CharString name="Oacute">
          -48 callgsubr
          54 144 -19 callsubr
          208 750 -102 callgsubr
          52 -763 -103 callsubr
          endchar
        </CharString>
        <CharString name="Oacute.loclPLK">
          -48 callgsubr
          48 144 -19 callsubr
          205 744 -70 callgsubr
          55 -757 -103 callsubr
          endchar
        </CharString>
        <CharString name="Obreve">
          -48 callgsubr
          54 74 callsubr
          385 -81 callgsubr
          hintmask 11110010
          -125 -896 -103 callsubr
          endchar
        </CharString>
        <CharString name="Ocircumflex">
          -48 callgsubr
          54 134 -19 callsubr
          128 750 36 callsubr
          -765 -103 callsubr
          endchar
        </CharString>
        <CharString name="Odieresis">
          -48 callgsubr
          85 94 55 callsubr
          -34 95 81 95 -34 -21 callgsubr
          hintmask 11101100
          125 781 -89 callgsubr
          hintmask 11110010
          -41 -883 -103 callsubr
          endchar
        </CharString>
        <CharString name="Ograve">
          -48 callgsubr
          54 144 -19 callsubr
          222 750 -93 callsubr
          117 -897 -103 callsubr
          endchar
        </CharString>
        <CharString name="Ohorn">
          -48 callgsubr
          -56 48 104 callsubr
          -2 69 hintmask 00000000
          hintmask 10110100
          472 138 callsubr
          -46 hlineto
          hintmask 11011000
          -65 callsubr
          hintmask 10111000
          46 callsubr
          hintmask 10110100
          24 callsubr
          hintmask 11011000
          -281 -693 -80 callsubr
        </CharString>
        <CharString name="Ohungarumlaut">
          -48 callgsubr
          58 125 -19 callsubr
          152 754 -81 callsubr
          -37 -766 -103 callsubr
          endchar
        </CharString>
        <CharString name="Omacron">
          -48 callgsubr
          94 98 55 callsubr
          1 202 0 -21 callgsubr
          hintmask 11101000
          160 790 -51 callgsubr
          hintmask 11110100
          100 -896 -103 callsubr
          endchar
        </CharString>
        <CharString name="Oslash">
          90 -8 101 -72 -21 595 101 104 callsubr
          hintmask 10111000
          474 743 59 callgsubr
          hintmask 01111000
          87 callsubr
          hintmask 10111000
          -5 26 31 -3 38 hhcurveto
          -61 callgsubr
          157 -3 91 -39 51 hvcurveto
          -172 -550 -80 callsubr
        </CharString>
        <CharString name="Oslashacute">
          90 -8 101 -72 -21 595 101 48 144 104 callsubr
          hintmask 10111100
          369 883 -61 callsubr
          185 -1 59 callgsubr
          hintmask 01111100
          87 callsubr
          hintmask 10111100
          -5 26 31 -3 38 hhcurveto
          -61 callgsubr
          157 -3 91 -39 51 hvcurveto
          -172 -550 -80 callsubr
        </CharString>
        <CharString name="Otilde">
          -48 callgsubr
          55 -84 callsubr
          47 112 -51 56 callgsubr
          -50 -21 callgsubr
          hintmask 11011010
          412 885 -94 callsubr
          hintmask 11100101
          -101 callsubr
          hintmask 11011010
          -95 callsubr
          hintmask 11001001
          -152 -893 -103 callsubr
          endchar
        </CharString>
        <CharString name="P">
          48 21 -21 233 101 253 101 102 callgsubr
          233 106 hlineto
          153 19 96 132 140 -22 87 -148 hvcurveto
          -220 hlineto
          112 -354 rmoveto
          253 79 vlineto
          80 7 -25 -101 -102 -8 -25 -80 hvcurveto
          endchar
        </CharString>
        <CharString name="Q">
          -48 callgsubr
          -19 callsubr
          382 -115 rmoveto
          120 4 hlineto
          -86 142 rlineto
          54 48 4 96 169 vvcurveto
          53 callgsubr
          -279 8 -73 205 22 20 1 2 18 vhcurveto
          -60 98 -80 callsubr
        </CharString>
        <CharString name="R">
          90 callgsubr
          -29 callgsubr
          473 hmoveto
          -85 callsubr
        </CharString>
        <CharString name="R.ss01">
          30 callgsubr
          -18 callsubr
          171 3 callsubr
          79 callsubr
          453 166 rmoveto
          hintmask 11111000
          -82 callgsubr
          hintmask 11110100
          -43 callsubr
          hintmask 11111000
          -56 callsubr
          endchar
        </CharString>
        <CharString name="Racute">
          90 callgsubr
          56 144 -29 callgsubr
          358 883 -61 callsubr
          195 -744 rmoveto
          -85 callsubr
        </CharString>
        <CharString name="Racute.ss01">
          30 callgsubr
          56 144 -18 callsubr
          171 3 callsubr
          hintmask 11111100
          361 883 -61 callsubr
          hintmask 11111010
          172 -578 -74 callsubr
        </CharString>
        <CharString name="Rcaron">
          90 callgsubr
          65 135 -29 callgsubr
          305 753 5 callsubr
          278 -753 rmoveto
          -85 callsubr
        </CharString>
        <CharString name="Rcaron.ss01">
          30 callgsubr
          65 135 -18 callsubr
          171 3 callsubr
          hintmask 11111100
          308 753 5 callsubr
          hintmask 11111010
          255 -587 -74 callsubr
        </CharString>
        <CharString name="Rcommaaccent">
          69 -24 callgsubr
          83 132 callsubr
          -18 callsubr
          25 113 36 112 hintmask 11111101
          -14 callsubr
          hintmask 11111111
          -62 -527 37 callgsubr
        </CharString>
        <CharString name="Rcommaaccent.ss01">
          75 -24 callgsubr
          83 64 callsubr
          -18 callsubr
          28 113 30 3 callsubr
          -28 callgsubr
          hintmask 1111110010000000
          453 166 rmoveto
          hintmask 1111110100000000
          -82 callgsubr
          hintmask 1111110010000000
          -43 callsubr
          hintmask 1111110100000000
          -56 callsubr
          hintmask 1111111100000000
          -61 -529 37 callgsubr
        </CharString>
        <CharString name="S">
          21 -57 callgsubr
          14 callsubr
          227 -8 rmoveto
          122 67 32 182 49 -5 35 -8 25 hvcurveto
          -100 callgsubr
          -9 50 74 -6 55 hhcurveto
          endchar
        </CharString>
        <CharString name="Sacute">
          21 -57 callgsubr
          48 144 14 callsubr
          170 744 -102 callgsubr
          57 -757 rmoveto
          122 67 32 182 49 -5 35 -8 25 hvcurveto
          -100 callgsubr
          -9 50 74 -6 55 hhcurveto
          endchar
        </CharString>
        <CharString name="Sacute.loclPLK">
          21 -57 callgsubr
          48 144 14 callsubr
          170 744 -70 callgsubr
          57 -757 rmoveto
          122 67 32 182 49 -5 35 -8 25 hvcurveto
          -100 callgsubr
          -9 50 74 -6 55 hhcurveto
          endchar
        </CharString>
        <CharString name="Scaron">
          21 -57 callgsubr
          53 135 14 callsubr
          176 749 -100 callsubr
          128 -885 rmoveto
          122 67 32 182 49 -5 35 -8 25 hvcurveto
          -100 callgsubr
          -9 50 74 -6 55 hhcurveto
          endchar
        </CharString>
        <CharString name="Scedilla">
          21 -7 100 502 101 14 callsubr
          416 206 rmoveto
          49 -5 35 -8 25 vhcurveto
          -100 callgsubr
          39 -7 53 -5 48 -2 -58 -178 rcurveline
          -5 97 vlineto
          36 183 rlineto
          99 7 54 43 163 vvcurveto
          endchar
        </CharString>
        <CharString name="Scircumflex">
          21 -57 callgsubr
          58 134 14 callsubr
          94 754 -107 callgsubr
          133 -769 rmoveto
          122 67 32 182 49 -5 35 -8 25 hvcurveto
          -100 callgsubr
          -9 50 74 -6 55 hhcurveto
          endchar
        </CharString>
        <CharString name="Scommaaccent">
          21 132 callgsubr
          -35 callsubr
          hstemhm
          34 112 28 113 17 112 hintmask 11110100
          227 -8 rmoveto
          hintmask 11111110
          122 67 32 182 49 -5 35 -8 25 hvcurveto
          -100 callgsubr
          hintmask 11110100
          -9 50 74 -6 55 hhcurveto
          -62 -232 -90 callgsubr
        </CharString>
        <CharString name="T">
          -9 21 77 callsubr
          155 hmoveto
          13 callsubr
          endchar
        </CharString>
        <CharString name="Tbar">
          -9 21 -21 296 92 196 104 hstem
          155 -41 callgsubr
          409 584 rmoveto
          104 -396 -104 142 -196 -125 -92 125 -296 112 296 125 92 -125 196 vlineto
          endchar
        </CharString>
        <CharString name="Tcaron">
          -9 21 -21 584 104 65 135 hstem
          155 -41 callgsubr
          156 753 -100 callsubr
          76 -881 rmoveto
          13 callsubr
          endchar
        </CharString>
        <CharString name="Thorn">
          48 21 -21 123 101 253 101 110 -20 102 callgsubr
          123 107 hlineto
          153 18 97 131 140 -21 87 -149 hvcurveto
          -108 110 -112 hlineto
          112 -464 rmoveto
          253 79 vlineto
          81 6 -24 -102 -101 -8 -26 -80 hvcurveto
          endchar
        </CharString>
        <CharString name="U">
          -35 callgsubr
          -37 callsubr
          351 688 rmoveto
          -427 vlineto
          -102 callsubr
          385 vlineto
          endchar
        </CharString>
        <CharString name="Uacute">
          -35 callgsubr
          82 144 -37 callsubr
          215 750 -102 callgsubr
          136 -67 rmoveto
          -427 vlineto
          -102 callsubr
          385 vlineto
          endchar
        </CharString>
        <CharString name="Ubreve">
          -35 callgsubr
          82 85 callgsubr
          hintmask 11101100
          384 -81 callgsubr
          hintmask 11110010
          -33 -200 rmoveto
          -427 vlineto
          -102 callsubr
          385 vlineto
          endchar
        </CharString>
        <CharString name="Ucircumflex">
          -35 callgsubr
          82 134 -37 callsubr
          129 750 -107 callgsubr
          222 -69 rmoveto
          -427 vlineto
          -102 callsubr
          385 vlineto
          endchar
        </CharString>
        <CharString name="Udieresis">
          -35 callgsubr
          113 94 12 callsubr
          hintmask 11101100
          124 781 -89 callgsubr
          hintmask 11110010
          51 -187 rmoveto
          -427 vlineto
          -102 callsubr
          385 vlineto
          endchar
        </CharString>
        <CharString name="Ugrave">
          -35 callgsubr
          82 144 -37 callsubr
          225 750 -93 callsubr
          205 -201 rmoveto
          -427 vlineto
          -102 callsubr
          385 vlineto
          endchar
        </CharString>
        <CharString name="Uhorn">
          43 callsubr
          -5 callsubr
          182 112 19 69 hintmask 00000000
          hintmask 10111100
          114 callgsubr
          hintmask 10111000
          -58 -427 hlineto
          -102 callsubr
          hintmask 11011000
          338 vlineto
          hintmask 10111100
          78 -17 callsubr
        </CharString>
        <CharString name="Uhungarumlaut">
          -35 callgsubr
          86 125 -37 callsubr
          151 754 -81 callsubr
          55 -70 rmoveto
          -427 vlineto
          -102 callsubr
          385 vlineto
          endchar
        </CharString>
        <CharString name="Umacron">
          -35 callgsubr
          122 98 -5 callsubr
          -10 202 -10 -21 callgsubr
          hintmask 11101000
          159 790 -51 callgsubr
          hintmask 11110100
          192 -200 rmoveto
          -427 vlineto
          -102 callsubr
          385 vlineto
          endchar
        </CharString>
        <CharString name="Uogonek">
          89 111 callgsubr
          55 callgsubr
          -5 callsubr
          68 86 28 112 hintmask 11110100
          351 688 rmoveto
          -427 vlineto
          -148 -4 -20 -87 -86 -5 20 148 vhcurveto
          427 -112 -385 vlineto
          -244 14 -67 189 vhcurveto
          hintmask 11111100
          9 9 0 1 9 hvcurveto
          -30 -34 -20 -38 -35 8 callgsubr
          62 vlineto
          -2 -7 -1 -5 hhcurveto
          -33 -9 17 22 43 29 36 50 36 hvcurveto
          hintmask 11110100
          55 40 6 83 158 vvcurveto
          385 vlineto
          endchar
        </CharString>
        <CharString name="Uring">
          -35 callgsubr
          55 55 101 55 -5 callsubr
          -28 69 100 69 -28 -21 callgsubr
          hintmask 11110110
          259 723 -85 callgsubr
          hintmask 11111001
          92 -90 rmoveto
          -427 vlineto
          -102 callsubr
          385 vlineto
          endchar
        </CharString>
        <CharString name="Utilde">
          -35 callgsubr
          86 12 callgsubr
          hintmask 00000000
          hintmask 11011010
          412 2 callgsubr
          hintmask 11101001
          9 -28 -31 10 -30 hhcurveto
          -68 -3 -42 -81 hvcurveto
          hintmask 11100101
          63 hlineto
          33 2 11 19 -66 callgsubr
          vhcurveto
          hintmask 11011010
          -95 callsubr
          hintmask 11011001
          -61 -200 rmoveto
          -427 vlineto
          -102 callsubr
          385 vlineto
          endchar
        </CharString>
        <CharString name="V">
          54 0 125 563 -20 hstem
          11 462 vstem
          162 hmoveto
          160 hlineto
          151 688 rlineto
          -113 hlineto
          -113 -563 rlineto
          -7 hlineto
          -114 563 rlineto
          -115 hlineto
          endchar
        </CharString>
        <CharString name="W">
          7 callgsubr
          hstemhm
          19 709 hintmask 10110000
          462 hmoveto
          -80 callgsubr
          hintmask 11010000
          58 callgsubr
        </CharString>
        <CharString name="Wacute">
          7 callgsubr
          76 144 hstemhm
          19 709 hintmask 10111000
          318 744 -102 callgsubr
          144 -749 rmoveto
          -80 callgsubr
          hintmask 11011000
          58 callgsubr
        </CharString>
        <CharString name="Wcircumflex">
          7 callgsubr
          86 134 hstemhm
          19 709 hintmask 10111000
          242 754 -107 callgsubr
          220 -761 rmoveto
          -80 callgsubr
          hintmask 11011000
          58 callgsubr
        </CharString>
        <CharString name="Wdieresis">
          7 callgsubr
          113 94 hstemhm
          238 95 81 95 hintmask 10111100
          238 781 -89 callgsubr
          48 -875 rmoveto
          -80 callgsubr
          hintmask 11011100
          58 callgsubr
        </CharString>
        <CharString name="Wgrave">
          7 callgsubr
          76 144 hstemhm
          19 709 hintmask 10111000
          339 744 -93 callsubr
          202 -883 rmoveto
          -80 callgsubr
          hintmask 11011000
          58 callgsubr
        </CharString>
        <CharString name="X">
          72 92 callsubr
          15 474 vstem
          365 hmoveto
          124 hlineto
          -161 349 158 339 rlineto
          -119 hlineto
          -110 -252 rlineto
          -7 hlineto
          -110 252 rlineto
          -123 hlineto
          160 -342 -162 -346 rlineto
          120 hlineto
          111 260 rlineto
          7 hlineto
          endchar
        </CharString>
        <CharString name="Y">
          29 92 callsubr
          100 callgsubr
          vstem
          174 hmoveto
          -84 callgsubr
        </CharString>
        <CharString name="Y.loclGUA">
          33 21 -21 688 -20 28 callgsubr
          323 688 -95 callgsubr
          endchar
        </CharString>
        <CharString name="Yacute">
          29 -63 callgsubr
          82 -4 callgsubr
          100 callgsubr
          vstem
          187 750 -102 callgsubr
          -13 -755 -79 callgsubr
        </CharString>
        <CharString name="Yacute.loclGUA">
          33 -63 callgsubr
          76 144 28 callgsubr
          340 883 -61 callsubr
          63 -56 -95 callgsubr
          endchar
        </CharString>
        <CharString name="Ycircumflex">
          29 -63 callgsubr
          86 134 hstem
          100 callgsubr
          vstem
          98 754 -107 callgsubr
          76 -761 -79 callgsubr
        </CharString>
        <CharString name="Ycircumflex.loclGUA">
          33 -63 callgsubr
          86 134 28 callgsubr
          231 835 -64 callsubr
          150 -66 -95 callgsubr
          endchar
        </CharString>
        <CharString name="Ydieresis">
          29 -63 callgsubr
          113 94 hstemhm
          98 95 -19 112 -12 95 79 callsubr
          98 781 -89 callgsubr
          hintmask 11101000
          -100 -875 -79 callgsubr
        </CharString>
        <CharString name="Ydieresis.loclGUA">
          33 -63 callgsubr
          113 94 hstemhm
          29 112 -45 95 -17 112 -14 95 -44 -21 callgsubr
          hintmask 11101010
          191 875 42 callgsubr
          hintmask 11110101
          -44 -93 -95 callgsubr
          endchar
        </CharString>
        <CharString name="Ygrave">
          29 -63 callgsubr
          76 -4 callgsubr
          100 callgsubr
          vstem
          195 744 -93 callsubr
          58 -883 -79 callgsubr
        </CharString>
        <CharString name="Ygrave.loclGUA">
          33 -63 callgsubr
          76 144 28 callgsubr
          282 744 -50 callsubr
          126 -56 -95 callgsubr
          endchar
        </CharString>
        <CharString name="Z">
          93 callgsubr
          hstem
          31 379 vstem
          31 hmoveto
          -75 callgsubr
          endchar
        </CharString>
        <CharString name="Zacute">
          93 callgsubr
          56 -4 callgsubr
          31 379 vstem
          165 744 -102 callgsubr
          -134 -749 rmoveto
          -75 callgsubr
          endchar
        </CharString>
        <CharString name="Zacute.loclPLK">
          93 callgsubr
          56 -4 callgsubr
          31 379 vstem
          165 744 -70 callgsubr
          -134 -749 rmoveto
          -75 callgsubr
          endchar
        </CharString>
        <CharString name="Zcaron">
          93 callgsubr
          61 135 hstem
          31 379 vstem
          176 749 -100 callsubr
          -68 -877 rmoveto
          -75 callgsubr
          endchar
        </CharString>
        <CharString name="Zdotaccent">
          93 callgsubr
          93 94 hstem
          173 95 vstem
          173 18 callsubr
          -142 -875 rmoveto
          -75 callgsubr
          endchar
        </CharString>
        <CharString name="a">
          -90 callsubr
          73 callsubr
          hintmask 10011110
          150 -8 rmoveto
          hintmask 00111110
          -76 callsubr
          hintmask 01011110
          -107 callsubr
          hintmask 10011110
          -101 callgsubr
          endchar
        </CharString>
        <CharString name="aacute">
          -90 callsubr
          81 144 43 callgsubr
          164 599 -102 callgsubr
          -14 -612 rmoveto
          hintmask 00111111
          -76 callsubr
          hintmask 01011111
          -107 callsubr
          hintmask 10011111
          -101 callgsubr
          endchar
        </CharString>
        <CharString name="abreve">
          -90 callsubr
          87 65 78 callgsubr
          -28 callgsubr
          hintmask 1001110101000000
          339 -69 callsubr
          hintmask 1001111010000000
          -189 -751 rmoveto
          hintmask 0011110110000000
          -83 callsubr
        </CharString>
        <CharString name="acircumflex">
          -90 callsubr
          91 134 43 callgsubr
          82 609 -107 callgsubr
          68 -624 rmoveto
          hintmask 00111111
          -76 callsubr
          hintmask 01011111
          -107 callsubr
          hintmask 10011111
          -101 callgsubr
          endchar
        </CharString>
        <CharString name="acute">
          107 callgsubr
          164 vstem
          7 599 -102 callgsubr
          endchar
        </CharString>
        <CharString name="acute.case.loclPLK">
          -253 744 -4 callgsubr
          7 134 vstem
          7 744 -70 callgsubr
          endchar
        </CharString>
        <CharString name="acute.loclPLK">
          107 callgsubr
          134 vstem
          7 -27 callsubr
          endchar
        </CharString>
        <CharString name="acutecomb">
          599 70 callgsubr
          -171 599 -102 callgsubr
          endchar
        </CharString>
        <CharString name="acutecomb.case">
          744 70 callgsubr
          -171 744 -102 callgsubr
          endchar
        </CharString>
        <CharString name="adieresis">
          -90 callsubr
          109 94 hstemhm
          30 106 -57 95 81 95 -80 106 hintmask 1001110101000000
          79 627 rmoveto
          95 94 -95 hlineto
          hintmask 1001111010000000
          176 -94 rmoveto
          95 94 -95 hlineto
          -105 -729 rmoveto
          hintmask 0011110101000000
          -76 callsubr
          hintmask 0101111001000000
          -107 callsubr
          hintmask 1001111010000000
          -106 35 -46 85 vhcurveto
          47 96 rmoveto
          -51 -10 12 53 hvcurveto
          hintmask 1001111001000000
          97 callsubr
          hintmask 1001111010000000
          -17 -15 -18 -3 -24 hhcurveto
          endchar
        </CharString>
        <CharString name="ae">
          229 -8 92 -91 91 134 80 128 92 hstemhm
          30 102 137 120 callgsubr
          hintmask 10111110
          618 254 -11 callgsubr
          hintmask 01111110
          135 callgsubr
          hintmask 10111110
          -43 callgsubr
        </CharString>
        <CharString name="aeacute">
          229 -8 92 -91 91 134 80 128 92 81 144 hstemhm
          30 102 137 120 callgsubr
          hintmask 10111111
          443 738 -61 callsubr
          255 -345 -11 callgsubr
          hintmask 01111111
          135 callgsubr
          hintmask 10111111
          -43 callgsubr
        </CharString>
        <CharString name="agrave">
          -90 callsubr
          81 144 43 callgsubr
          183 599 -93 callsubr
          46 -746 rmoveto
          hintmask 00111111
          -76 callsubr
          hintmask 01011111
          -107 callsubr
          hintmask 10011111
          -101 callgsubr
          endchar
        </CharString>
        <CharString name="amacron">
          -90 callsubr
          127 98 hstemhm
          30 106 -22 202 -46 65 callsubr
          hintmask 1001110100000000
          114 645 -51 callgsubr
          hintmask 1001111010000000
          36 -751 rmoveto
          hintmask 0011111010000000
          -83 callsubr
        </CharString>
        <CharString name="ampersand">
          121 -8 92 216 94 208 94 hstemhm
          47 108 -103 108 -15 140 59 105 hintmask 11110010
          344 394 rmoveto
          -306 vlineto
          -3 -21 -22 -1 -17 hhcurveto
          -93 -36 11 97 82 12 26 77 hvcurveto
          hintmask 11100110
          41 94 hlineto
          hintmask 11101010
          -41 hlineto
          -73 -11 30 73 85 17 20 129 40 60 -5 -6 42 hvcurveto
          86 vlineto
          11 -52 -71 8 -51 hhcurveto
          -167 -55 -59 -121 -101 31 -45 62 -17 hvcurveto
          -4 vlineto
          hintmask 11110010
          -64 -19 -34 -35 -113 vvcurveto
          -128 43 -62 181 52 73 7 10 53 vhcurveto
          291 83 94 vlineto
          endchar
        </CharString>
        <CharString name="aogonek">
          -2 111 callgsubr
          96 -67 -21 63 -58 callsubr
          hstemhm
          30 106 100 86 -52 65 callsubr
          hintmask 1010111100000000
          364 -132 rmoveto
          -32 -10 17 20 hvcurveto
          hintmask 1010111010000000
          36 31 41 23 18 vhcurveto
          316 vlineto
          150 -28 52 -146 -46 -55 -6 -10 -46 vhcurveto
          -84 vlineto
          4 38 57 4 22 hhcurveto
          81 17 -6 -98 hvcurveto
          -25 vlineto
          2 -36 -52 2 -22 hhcurveto
          -98 -32 -41 -116 hvcurveto
          hintmask 1100111010000000
          -106 35 -46 85 vhcurveto
          hintmask 1011111010000000
          -76 callsubr
          4 -63 rlineto
          hintmask 1010111100000000
          14 hlineto
          -31 -31 -25 -41 -44 vvcurveto
          -41 22 -39 29 callsubr
          -3 -6 -1 -5 hhcurveto
          hintmask 1100111010000000
          -94 327 rmoveto
          -48 -6 -27 -10 -12 vhcurveto
          -17 -15 -18 -3 -24 hhcurveto
          -51 -10 12 53 59 -6 callgsubr
          80 hlineto
          endchar
        </CharString>
        <CharString name="approxequal">
          23 100 124 -113 123 38 123 -112 122 hstemhm
          55 64 216 63 hintmask 10101100
          55 272 rmoveto
          64 hlineto
          33 1 11 129 callsubr
          hintmask 10011100
          -9 130 callsubr
          42 33 callsubr
          -80 hvcurveto
          -172 vmoveto
          64 hlineto
          33 1 12 129 callsubr
          hintmask 01101100
          -10 130 callsubr
          43 33 callsubr
          -81 hvcurveto
          endchar
        </CharString>
        <CharString name="aring">
          -90 callsubr
          66 55 101 55 hstemhm
          30 106 -41 69 100 69 -63 106 hintmask 1001111010100000
          213 584 rmoveto
          hintmask 1001111011000000
          116 4 33 72 72 -4 34 -116 -114 -4 -34 -72 hvcurveto
          hintmask 1001111010100000
          -72 4 -33 114 vhcurveto
          hintmask 1001111011000000
          55 vmoveto
          -48 -1 11 39 39 1 12 48 50 1 -12 -39 -39 -1 -11 -50 hvcurveto
          hintmask 1001111100100000
          -63 -647 rmoveto
          hintmask 0011111010100000
          -76 callsubr
          hintmask 0101111100100000
          -107 callsubr
          hintmask 1001111100100000
          -101 callgsubr
          endchar
        </CharString>
        <CharString name="aringacute">
          -90 callsubr
          90 55 101 55 48 callgsubr
          30 106 -40 69 100 69 -64 65 callsubr
          hintmask 1001111101100000
          166 848 -102 callgsubr
          48 -245 rmoveto
          116 4 33 72 hvcurveto
          hintmask 1001111001100000
          72 -4 34 -116 -114 -4 -34 -72 vhcurveto
          hintmask 1001111101100000
          103 callsubr
          hintmask 1001111001100000
          39 1 12 48 50 1 -12 -39 vhcurveto
          hintmask 1001111101100000
          -39 -1 -11 -50 vhcurveto
          hintmask 1001111010010000
          -64 -671 rmoveto
          hintmask 0011111001010000
          -76 callsubr
          hintmask 0101111010010000
          -107 callsubr
          hintmask 1001111010010000
          -101 callgsubr
          endchar
        </CharString>
        <CharString name="arrowboth">
          76 callsubr
          340 162 rmoveto
          -33 97 rlineto
          269 hlineto
          -33 -97 105 callgsubr
          33 -98 rlineto
          -269 hlineto
          33 98 -285 -143 rlineto
          endchar
        </CharString>
        <CharString name="arrowdown">
          -36 -14 callgsubr
          hstem
          153 90 vstem
          198 -85 rmoveto
          142 285 -97 -33 rlineto
          521 -90 -521 vlineto
          -98 33 rlineto
          endchar
        </CharString>
        <CharString name="arrowdown.ss01">
          -86 171 285 hstem
          30 285 vstem
          173 171 rmoveto
          142 285 rlineto
          -285 hlineto
          endchar
        </CharString>
        <CharString name="arrowleft">
          76 callsubr
          307 259 rmoveto
          521 90 -521 hlineto
          33 98 -285 -143 285 -142 rlineto
          endchar
        </CharString>
        <CharString name="arrowleft.ss01">
          -68 201 285 hstem
          30 285 vstem
          315 201 rmoveto
          285 vlineto
          -285 -143 rlineto
          endchar
        </CharString>
        <CharString name="arrowright">
          76 callsubr
          543 162 rmoveto
          105 callgsubr
          33 -98 rlineto
          -521 -90 521 hlineto
          endchar
        </CharString>
        <CharString name="arrowright.ss01">
          -68 201 285 hstem
          48 285 vstem
          48 201 rmoveto
          105 callgsubr
          rlineto
          endchar
        </CharString>
        <CharString name="arrowup">
          -36 691 -20 hstem
          153 90 vstem
          153 -82 rmoveto
          90 521 hlineto
          97 -33 -142 285 -143 -285 98 33 rlineto
          endchar
        </CharString>
        <CharString name="arrowup.ss01">
          -86 516 -20 hstem
          30 285 vstem
          30 231 rmoveto
          285 hlineto
          -142 285 rlineto
          endchar
        </CharString>
        <CharString name="arrowupdn">
          -36 696 -20 hstem
          153 90 vstem
          11 callgsubr
          endchar
        </CharString>
        <CharString name="arrowupdnbse">
          -36 -201 82 815 -20 hstemhm
          55 285 -187 90 hintmask 11010000
          11 callgsubr
          hintmask 11100000
          -401 vmoveto
          285 82 -285 hlineto
          endchar
        </CharString>
        <CharString name="asciicircum">
          -32 474 276 hstem
          25 348 vstem
          282 474 rmoveto
          91 hlineto
          -126 276 rlineto
          -94 hlineto
          -128 -276 rlineto
          92 hlineto
          83 194 rlineto
          endchar
        </CharString>
        <CharString name="asciitilde">
          23 236 -84 callsubr
          55 64 216 63 hintmask 00000000
          hintmask 01110000
          398 370 rmoveto
          -63 hlineto
          -33 -1 -11 -25 -19 -24 7 7 -26 vhcurveto
          hintmask 10110000
          9 -33 -37 10 -35 hhcurveto
          -76 -4 -43 -80 hvcurveto
          64 hlineto
          33 1 12 129 callsubr
          hintmask 01110000
          -10 130 callsubr
          43 80 hvcurveto
          endchar
        </CharString>
        <CharString name="asterisk">
          -23 -14 callgsubr
          hstem
          175 57.5 vstem
          227 482 rmoveto
          102 -70 34 59 -112 52 112 53 -34 59 -102 -71 11 124 rlineto
          -68 hlineto
          10 -124 -101 71 -34 -59 111 -53 -111 -52 34 -59 101 70 -10 -123 rlineto
          68 hlineto
          endchar
        </CharString>
        <CharString name="asterisk.ss02">
          386 -14 719 hstem
          35 747 vstem
          178 -14 rmoveto
          231 170 231 -170 -90 276 232 174 rlineto
          -288 hlineto
          -85 269 -87 -269 rlineto
          -287 hlineto
          234 -174 rlineto
          endchar
        </CharString>
        <CharString name="at">
          277 -108 52 124 81 -74 51 139 66 106 81 121 57 hstemhm
          58 55 95 89 111 93 96 55 hintmask 1011111111000000
          355 -108 rmoveto
          61 47 0 2 38 hvcurveto
          54 vlineto
          -3 -21 -83 -1 -42 hhcurveto
          -31 -28 0 1 -23 hvcurveto
          -158 8 -2 46 295 vvcurveto
          262 2 66 112 17 vhcurveto
          32 4 42 1 53 54 42 -1 33 hflex1
          112 -17 2 -66 -262 vvcurveto
          -167 -10 -1 -37 vhcurveto
          -49 219 hlineto
          127 -22 46 -125 -40 -46 -5 -9 -39 vhcurveto
          -73 vlineto
          2 12 60 4 26 hhcurveto
          69 12 -5 -82 hvcurveto
          -23 vlineto
          2 -31 -44 2 -19 hhcurveto
          -81 -25 -34 -99 hvcurveto
          hintmask 1101111111000000
          -92 28 -38 73 38 40 10 48 17 vhcurveto
          5 hlineto
          hintmask 1011111111000000
          5 -51 rlineto
          129 hlineto
          79 30 3 216 355 -7 47 -290 -290 -7 -49 -353 -353 7 -49 290 hvcurveto
          -8 257 rmoveto
          -43 -7 12 45 51 7 8 36 hvcurveto
          68 -28 hlineto
          -69 -11 -19 -50 vhcurveto
          endchar
        </CharString>
        <CharString name="atilde">
          -90 callsubr
          91 -84 callsubr
          30 106 -74 63 145 106 -74 133 callgsubr
          hintmask 1001101010100000
          366 743 -94 callsubr
          hintmask 1001110011000000
          -101 callsubr
          hintmask 1001101010100000
          -95 callsubr
          hintmask 1001100101000000
          -216 -751 rmoveto
          hintmask 0011100011000000
          -76 callsubr
          hintmask 0101100101000000
          -107 callsubr
          hintmask 1001100101000000
          -101 callgsubr
          endchar
        </CharString>
        <CharString name="b">
          21 -8 99 -91 91 -28 28 329 98 hstemhm
          55 106 144 106 hintmask 10011100
          276 -8 rmoveto
          102 33 56 206 200 -29 64 -104 -53 -40 -17 -46 -18 hvcurveto
          -6 288 -106 hlineto
          hintmask 01011100
          -743 97 vlineto
          hintmask 00111100
          4 63 rlineto
          7 hlineto
          hintmask 10011100
          -60 19 50 -11 44 hhcurveto
          -45 99 rmoveto
          -36 -18 10 33 -8 hvcurveto
          -7 25 -1 39 57 vvcurveto
          64 2 40 8 25 vhcurveto
          27 10 17 9 33 hhcurveto
          66 8 -12 -153 -154 -8 -10 -66 hvcurveto
          endchar
        </CharString>
        <CharString name="backslash">
          138 callgsubr
          207 -55 rmoveto
          95 hlineto
          -193 798 rlineto
          -96 hlineto
          endchar
        </CharString>
        <CharString name="bar">
          127 callsubr
          -161 rmoveto
          98 904 -98 hlineto
          endchar
        </CharString>
        <CharString name="bar.ss02">
          67 72 callsubr
          -1 500 vstem
          -1 hmoveto
          500 696 -500 hlineto
          endchar
        </CharString>
        <CharString name="braceleft">
          -135 -150 893 hstemhm
          21 87 -10 102 hintmask 10100000
          202 -150 rmoveto
          73 hlineto
          -64 82 -11 45 55 vvcurveto
          114 vlineto
          77 -26 54 -66 16 vhcurveto
          7 vlineto
          66 16 26 53 76 vvcurveto
          115 vlineto
          54 11 48 64 81 vhcurveto
          -73 hlineto
          -60 -34 -44 -75 -71 vvcurveto
          -121 vlineto
          -56 -12 -60 -65 -4 vhcurveto
          hintmask 11000000
          -54 vlineto
          hintmask 10100000
          65 -4 12 -60 -56 vvcurveto
          -120 vlineto
          -70 43 -74 61 -34 vhcurveto
          endchar
        </CharString>
        <CharString name="braceright">
          -135 -150 893 hstemhm
          94 102 -10 87 hintmask 11000000
          19 -150 rmoveto
          73 hlineto
          61 34 43 74 70 vvcurveto
          120 vlineto
          56 11 60 66 4 vhcurveto
          hintmask 10100000
          54 vlineto
          hintmask 11000000
          -66 4 -11 60 56 vvcurveto
          121 vlineto
          71 -44 75 -60 34 vhcurveto
          -73 hlineto
          64 -87 11 -42 -54 vvcurveto
          -115 vlineto
          -76 26 -53 66 -16 vhcurveto
          -7 vlineto
          -66 -16 -26 -54 -77 vvcurveto
          -114 vlineto
          -55 -13 -48 -62 -79 vhcurveto
          endchar
        </CharString>
        <CharString name="bracketleft">
          -146 -150 75 743 75 hstem
          61 102 vstem
          61 -150 rmoveto
          192 73 hlineto
          -90 4 rlineto
          739 vlineto
          90 4 rlineto
          73 -192 vlineto
          endchar
        </CharString>
        <CharString name="bracketleft.ss02">
          34 callsubr
          hvcurveto
          -348 vlineto
          endchar
        </CharString>
        <CharString name="bracketright">
          -147 -150 75 743 75 hstem
          122 102 vstem
          32 -150 rmoveto
          192 893 -192 -73 hlineto
          90 -4 rlineto
          -739 vlineto
          -90 -4 rlineto
          endchar
        </CharString>
        <CharString name="bracketright.ss02">
          -34 72 callsubr
          0 352 vstem
          0 vmoveto
          352 348 hlineto
          108 callgsubr
          vhcurveto
          endchar
        </CharString>
        <CharString name="breve">
          -168 605 65 hstem
          7 -30 callgsubr
          vstem
          256 -69 callsubr
          endchar
        </CharString>
        <CharString name="brokenbar">
          127 callsubr
          390 rmoveto
          98 353 -98 hlineto
          -904 vmoveto
          98 353 -98 hlineto
          endchar
        </CharString>
        <CharString name="bullet">
          -134 244 198 hstem
          50 196 vstem
          246 342 rmoveto
          86 -4 14 -95 -93 -4 -14 -86 -84 4 -14 93 95 4 14 84 vhcurveto
          endchar
        </CharString>
        <CharString name="bullet.ss02">
          352 -8 60 155 60 -36 60 105 60 -35 60 155 60 hstemhm
          40 60 155 60 -36 60 105 60 -36 60 155 60 -28 callgsubr
          hintmask 0010111011000000
          392 421 rmoveto
          62 50 39 73 90 -76 73 -36 -37 -76 -73 -90 -73 50 -39 63 hvcurveto
          60 vmoveto
          -30 -23 18 34 57 36 46 17 17 35 -46 -57 -34 -23 -18 -29 hvcurveto
          -189 -250 rmoveto
          hintmask 0011001100000000
          73 39 50 63 62 -39 50 -73 -90 -73 -76 -36 hvcurveto
          hintmask 0010111011000000
          -37 73 -76 90 vhcurveto
          hintmask 0011001100110000
          378 hmoveto
          89 73 76 37 36 -73 76 -89 -74 -39 -50 -62 -63 39 -50 74 hvcurveto
          -378 60 rmoveto
          -57 -46 36 17 17 46 35 57 34 18 -23 -29 -30 -18 -23 -34 hvcurveto
          378 hmoveto
          -35 -18 23 30 29 18 23 35 56 46 -35 -17 -17 -46 -36 -56 hvcurveto
          hintmask 1100000011000000
          -189 -299 rmoveto
          36 76 73 90 73 -50 39 -62 -63 -50 -39 -73 -90 76 -73 37 hvcurveto
          60 vmoveto
          -17 -36 46 57 34 23 18 30 29 23 -18 -34 -57 -35 -46 -17 hvcurveto
          endchar
        </CharString>
        <CharString name="c">
          119 callsubr
          hstem
          41 106 vstem
          318 7 rmoveto
          85 vlineto
          -86 callsubr
          -181 15 -82 152 37 44 6 9 29 hvcurveto
          endchar
        </CharString>
        <CharString name="cacute">
          -82 123 callsubr
          vstem
          124 599 -102 callgsubr
          194 -597 rmoveto
          85 vlineto
          -86 callsubr
          -181 15 -82 152 37 44 6 9 29 hvcurveto
          endchar
        </CharString>
        <CharString name="cacute.loclPLK">
          -82 123 callsubr
          vstem
          124 -27 callsubr
          194 -597 rmoveto
          85 vlineto
          -86 callsubr
          -181 15 -82 152 37 44 6 9 29 hvcurveto
          endchar
        </CharString>
        <CharString name="caron">
          -154 608 135 hstem
          6 264 vstem
          83 608 -100 callsubr
          endchar
        </CharString>
        <CharString name="caron.loclCSY">
          100 callsubr
          31 434 9 callgsubr
          endchar
        </CharString>
        <CharString name="ccaron">
          119 callsubr
          90 135 hstem
          41 106 vstem
          120 608 -100 callsubr
          275 -729 rmoveto
          85 vlineto
          -86 callsubr
          -181 15 -82 152 37 44 6 9 29 hvcurveto
          endchar
        </CharString>
        <CharString name="ccedilla">
          -82 -8 92 -63 -21 426 92 hstemhm
          41 106 hintmask 00000000
          hintmask 10110000
          318 92 rmoveto
          -86 callsubr
          hvcurveto
          hintmask 01110000
          -149 10 -82 88 -24 vhcurveto
          129 callgsubr
          hintmask 10110000
          36 182 rlineto
          36 42 6 9 28 hvcurveto
          endchar
        </CharString>
        <CharString name="ccircumflex">
          -82 44 callgsubr
          hstem
          41 106 vstem
          43 609 -107 callgsubr
          275 -609 rmoveto
          85 vlineto
          -86 callsubr
          -181 15 -82 152 37 44 6 9 29 hvcurveto
          endchar
        </CharString>
        <CharString name="cdotaccent">
          119 callsubr
          118 94 hstemhm
          41 106 -20 95 hintmask 00000000
          hintmask 11101000
          127 31 callgsubr
          191 -723 rmoveto
          85 vlineto
          hintmask 11110000
          -86 callsubr
          -181 15 -82 152 hvcurveto
          hintmask 11101000
          37 44 6 9 29 hvcurveto
          endchar
        </CharString>
        <CharString name="cedilla">
          -274 -190 198 hstem
          11 135 vstem
          11 67 callsubr
        </CharString>
        <CharString name="cent">
          -65 -8 172 -94 94 359 94 -94 173 hstemhm
          43 110 19 81 hintmask 10010100
          172 -8 rmoveto
          81 hlineto
          hintmask 01010100
          78 vlineto
          22 2 29 5 24 7 rrcurveto
          hintmask 10011100
          88 vlineto
          -5 -30 -32 -3 -22 hhcurveto
          -77 -14 19 160 158 12 22 78 hvcurveto
          hintmask 10010100
          21 31 -3 -5 30 hvcurveto
          hintmask 10100100
          88 vlineto
          -19 6 -30 6 -23 2 rrcurveto
          hintmask 10010100
          79 -81 -81 vlineto
          hintmask 10011100
          -107 -16 -22 -83 -174 vvcurveto
          hintmask 10010100
          -164 15 -90 114 -17 vhcurveto
          endchar
        </CharString>
        <CharString name="circumflex">
          -154 609 134 hstem
          7 264 vstem
          7 609 -59 callgsubr
        </CharString>
        <CharString name="colon">
          -207 0 50 callgsubr
          -510 vmoveto
          119 117 -119 hlineto
          endchar
        </CharString>
        <CharString name="comma">
          -207 -139 52 87 62 callsubr
          43 -87 35 callsubr
        </CharString>
        <CharString name="copyright">
          154 -8 45 117 58 262 58 118 46 hstem
          62 46 89 66 213 47 vstem
          292 -8 rmoveto
          223 8 45 307 306 -8 46 -223 -223 -7 -46 -306 -307 7 -45 223 hvcurveto
          45 vmoveto
          -179 -5 11 296 295 5 11 179 180 4 -11 -295 -296 -4 -11 -180 hvcurveto
          18 117 rmoveto
          23 27 4 5 14 hvcurveto
          54 vlineto
          -3 -13 -21 -2 -17 hhcurveto
          -57 -3 11 120 121 3 10 57 16 21 -2 -2 13 hvcurveto
          53 vlineto
          5 -13 -26 4 -24 hhcurveto
          -99 -14 -42 -147 -148 13 -41 100 hvcurveto
          endchar
        </CharString>
        <CharString name="currency">
          99 73 92 358 92 hstem
          82 120 callsubr
          vstem
          106 3 rmoveto
          77 77 rlineto
          -5 21 26 -2 32 hhcurveto
          34 28 2 6 22 hvcurveto
          78 -78 65 64 -69 70 rlineto
          19 42 3 65 100 vvcurveto
          99 -3 66 -19 41 vhcurveto
          69 69 -65 65 -77 -77 rlineto
          6 -23 -28 2 -34 hhcurveto
          -32 -26 -2 -5 -22 hvcurveto
          -76 76 -65 -65 65 -65 rlineto
          -21 -41 -3 -66 -103 vvcurveto
          -103 3 -67 21 -41 vhcurveto
          -65 -66 rlineto
          221 98 rmoveto
          -72 -2 17 162 163 2 16 72 72 2 -16 -163 -162 -2 -17 -72 hvcurveto
          endchar
        </CharString>
        <CharString name="d">
          21 -8 68 callgsubr
          73 callgsubr
          hintmask 10011100
          3 callgsubr
          hintmask 01101100
          7 callsubr
          hintmask 10011100
          -4 callsubr
          -206 32 -55 103 hvcurveto
          45 99 rmoveto
          -57 callsubr
          -28 -9 -18 -9 -33 hhcurveto
          endchar
        </CharString>
        <CharString name="dagger">
          -56 21 -21 436.5 78.5 173 -20 hstem
          145 82.5 vstem
          149 hmoveto
          74 hlineto
          9 432 100 9 rlineto
          74 vlineto
          121 callsubr
          -98 -9 rlineto
          -74 vlineto
          98 -9 rlineto
          endchar
        </CharString>
        <CharString name="daggerdbl">
          -57 21 -21 168 82.5 186 78.5 173 -20 hstemhm
          141 91 -87 82.5 79 callsubr
          149 hmoveto
          74 hlineto
          9 164 rlineto
          hintmask 11111000
          100 8 rlineto
          74 vlineto
          -100 9 rlineto
          177 vlineto
          100 9 rlineto
          74 vlineto
          hintmask 11110100
          121 callsubr
          rlineto
          hintmask 11111000
          -98 -9 rlineto
          -74 vlineto
          98 -9 rlineto
          -177 vlineto
          -98 -9 rlineto
          -74 vlineto
          hintmask 11110100
          98 -8 rlineto
          endchar
        </CharString>
        <CharString name="dcaron">
          21 -8 68 callgsubr
          -84 254 0 -20 73 callgsubr
          47 102 hintmask 1001011110000000
          3 callgsubr
          hintmask 0110011110000000
          7 callsubr
          hintmask 1001011110000000
          -4 callsubr
          -206 32 -55 103 hvcurveto
          hintmask 1000101110000000
          251 442 9 callgsubr
          -223 -535 rmoveto
          -66 -8 10 154 hvcurveto
          hintmask 1001011110000000
          153 8 12 66 40 18 -14 -44 7 vhcurveto
          4 -25 1 -35 -47 vvcurveto
          -62 -2 -40 -8 -25 vhcurveto
          hintmask 1000101110000000
          -28 -9 -18 -9 -33 hhcurveto
          endchar
        </CharString>
        <CharString name="dcroat">
          21 -8 68 callgsubr
          78 92 73 callgsubr
          hintmask 10011110
          443 688 rmoveto
          -46 55 -106 -55 -98 -92 98 hlineto
          hintmask 10101110
          -141 -6 vlineto
          hintmask 10011110
          -4 callsubr
          -206 32 -55 103 43 51 11 60 19 hvcurveto
          6 hlineto
          hintmask 01011110
          4 -63 rlineto
          98 596 46 hlineto
          hintmask 10011110
          -162 -468 rmoveto
          -28 -9 -18 -9 -33 hhcurveto
          -57 callsubr
          endchar
        </CharString>
        <CharString name="degree">
          -110 397 58 182 59 hstem
          42 72 93 72 vstem
          160 24 callgsubr
          58 vmoveto
          -45 -1 14 77 77 1 14 45 46 1 -14 -77 -77 -1 -14 -46 hvcurveto
          endchar
        </CharString>
        <CharString name="dialog">
          374 71 callsubr
          59 60 567 60 vstem
          306 -212 rmoveto
          213 212 rlineto
          227 688 -687 -688 247 60 -187 568 567 -568 -192 hlineto
          -188 -187 rlineto
          endchar
        </CharString>
        <CharString name="dieresis">
          -137 636 94 hstem
          12 95 81 95 vstem
          12 636 -89 callgsubr
          endchar
        </CharString>
        <CharString name="divide">
          48 43 85 79 91 79 85 hstem
          193 93 vstem
          193 377 rmoveto
          93 85 -93 hlineto
          -134 -255 rmoveto
          361 91 -361 hlineto
          134 -255 rmoveto
          93 85 -93 hlineto
          endchar
        </CharString>
        <CharString name="dollar">
          -14 -8 173 -95 95 133.5 97.5 128 95 -95 172 hstemhm
          44 110 17 81 10 110 hintmask 10001010
          171 -8 rmoveto
          81 79 hlineto
          hintmask 10101111
          77 10 43 41 114 vvcurveto
          125 -42 22 -71 9 vhcurveto
          -66 8 rlineto
          -33 4 -6 6 52 vvcurveto
          52 19 10 54 vhcurveto
          hintmask 10001010
          34 48 -4 -6 38 hvcurveto
          hintmask 10010010
          89 vlineto
          -22 7 -40 7 -33 2 rrcurveto
          hintmask 10001010
          77 -81 -79 vlineto
          hintmask 10101111
          -79 -9 -48 -40 -108 vvcurveto
          -106 20 -36 99 -15 vhcurveto
          59 -9 rlineto
          33 -5 7 -3 -58 vvcurveto
          -48 -9 -15 -66 -45 -23 2 7 -63 vhcurveto
          hintmask 01001110
          -90 vlineto
          hintmask 01001010
          28 -7 47 -5 40 -2 rrcurveto
          endchar
        </CharString>
        <CharString name="dotaccent">
          -314 636 94 hstem
          11 95 vstem
          11 31 callgsubr
          endchar
        </CharString>
        <CharString name="dotbelowcomb">
          -45 callgsubr
          hstem
          -171 119 vstem
          -171 -179 -94 callgsubr
        </CharString>
        <CharString name="dotlessi">
          -32 callgsubr
          83 callsubr
          55 hmoveto
          -7 callsubr
          endchar
        </CharString>
        <CharString name="e">
          -62 callsubr
          47 callgsubr
          390 255 -105 callgsubr
          endchar
        </CharString>
        <CharString name="eacute">
          -62 callsubr
          81 144 47 callgsubr
          337 738 -61 callsubr
          133 -344 -105 callgsubr
          endchar
        </CharString>
        <CharString name="ebreve">
          -62 callsubr
          87 84 callsubr
          214 605 rmoveto
          -65 callgsubr
          hvcurveto
          -68 hlineto
          -46 -2 -27 -56 -55 0 27 46 vhcurveto
          -68 hlineto
          -81 10 -57 113 vhcurveto
          hintmask 11111001
          176 -350 -105 callgsubr
          endchar
        </CharString>
        <CharString name="ecaron">
          -62 callsubr
          90 135 47 callgsubr
          271 608 5 callsubr
          229 -353 -105 callgsubr
          endchar
        </CharString>
        <CharString name="ecircumflex">
          -62 callsubr
          91 134 47 callgsubr
          220 690 -64 callsubr
          228 -354 -105 callgsubr
          endchar
        </CharString>
        <CharString name="edieresis">
          -62 callsubr
          109 94 hstemhm
          41 106 -61 95 81 95 -69 102 hintmask 00000000
          hintmask 11110110
          181 721 42 callgsubr
          hintmask 11111001
          33 -372 -105 callgsubr
          endchar
        </CharString>
        <CharString name="edotaccent">
          -62 callsubr
          118 94 hstemhm
          41 106 21 95 25 102 hintmask 00000000
          hintmask 11111110
          263 730 112 callgsubr
          hintmask 11111010
          127 -381 -105 callgsubr
          endchar
        </CharString>
        <CharString name="egrave">
          -62 callsubr
          81 144 47 callgsubr
          271 599 -50 callsubr
          204 -344 -105 callgsubr
          endchar
        </CharString>
        <CharString name="eight">
          69 -8 99 208 97 201 99 hstemhm
          45 86 callgsubr
          250 -58 callgsubr
        </CharString>
        <CharString name="eight.dnom">
          -121 -4 80 callsubr
          -4 -17 callgsubr
          hintmask 11111000
          -71 callsubr
          hintmask 11110100
          -76 29 -28 93 vhcurveto
          hintmask 11111000
          -49 callgsubr
          hintmask 11110100
          -52 callgsubr
        </CharString>
        <CharString name="eight.numr">
          -121 304 80 callsubr
          304 -17 callgsubr
          hintmask 11111000
          -71 callsubr
          hintmask 11110100
          -76 29 -28 93 vhcurveto
          hintmask 11111000
          -49 callgsubr
          hintmask 11110100
          -52 callgsubr
        </CharString>
        <CharString name="eight.tnum">
          57 -8 99 208 97 201 99 hstemhm
          39 86 callgsubr
          244 -58 callgsubr
        </CharString>
        <CharString name="ellipsis">
          242 0 117 hstem
          53 119 105 119 105 119 vstem
          53 hmoveto
          119 117 -119 hlineto
          224 -117 rmoveto
          119 117 -119 hlineto
          224 -117 -94 callgsubr
        </CharString>
        <CharString name="emacron">
          -62 callsubr
          127 98 hstemhm
          41 106 -32 202 -29 102 79 callsubr
          317 743 131 callgsubr
          hintmask 11111010
          73 -390 -105 callgsubr
          endchar
        </CharString>
        <CharString name="emdash">
          391 258 92 hstem
          48 726 vstem
          48 258 rmoveto
          726 92 -726 hlineto
          endchar
        </CharString>
        <CharString name="endash">
          10 258 92 hstem
          48 346 vstem
          48 258 rmoveto
          346 92 -346 hlineto
          endchar
        </CharString>
        <CharString name="eng">
          48 callsubr
          281 518 rmoveto
          hintmask 11100110
          -26 callsubr
          hintmask 11010110
          -46 callsubr
          hintmask 11001110
          -69 callgsubr
          -336 20 callgsubr
          -85 vlineto
          135 36 14 163 hvcurveto
          346 vlineto
          127 -17 61 -105 vhcurveto
          endchar
        </CharString>
        <CharString name="eogonek">
          1 111 callgsubr
          92 134 80 128 92 hstemhm
          41 106 68 142 -69 32 callsubr
          vhcurveto
          hintmask 11111100
          15 16 1 1 16 hvcurveto
          -35 -32 -26 -38 -42 vvcurveto
          -39 22 -39 29 callsubr
          134 callgsubr
          -30 -10 18 19 38 42 43 34 22 hvcurveto
          -88 callgsubr
          hintmask 11111010
          243 hlineto
          -170 208 60 callsubr
        </CharString>
        <CharString name="equal">
          48 116 92 90 92 95 callgsubr
          59 298 rmoveto
          361 92 -361 hlineto
          -274 vmoveto
          83 callgsubr
        </CharString>
        <CharString name="estimated">
          90 -8 34 297 34 305 34 104 callsubr
          -49 36 hintmask 11111000
          159 323 rmoveto
          315 21 hlineto
          53 callgsubr
          -279 8 -73 205 vhcurveto
          hintmask 11110100
          156 37 47 161 8 hvcurveto
          -36 hlineto
          -169 -10 -37 -5 -118 hhcurveto
          hintmask 11111000
          -93 -8 8 289 hvcurveto
          101 339 rmoveto
          94 8 -8 -297 hvcurveto
          -203 hlineto
          297 7 8 94 vhcurveto
          endchar
        </CharString>
        <CharString name="eth">
          15 -8 91 343 91 155 71 -55 -20 hstemhm
          41 106 -5 246 -93 105 hintmask 11011010
          221 -8 rmoveto
          170 9 60 210 87 -7 75 -10 44 hvcurveto
          hintmask 11010100
          -15 73 -14 45 -18 40 52 9 rcurveline
          66 vlineto
          -86 -13 rlineto
          hintmask 11100100
          -14 20 -13 18 -14 17 rrcurveto
          -109 -4 hlineto
          16 -20 17 -23 16 -24 -59 -9 rcurveline
          -66 vlineto
          91 14 16 -33 12 -36 10 -40 rlinecurve
          -2 -3 rlineto
          12 -20 -27 6 -37 hhcurveto
          hintmask 11011010
          -133 -11 -84 -179 -203 11 -59 169 hvcurveto
          91 vmoveto
          -74 0 18 153 158 0 14 74 74 0 -30 140 callgsubr
        </CharString>
        <CharString name="exclam">
          -21 callsubr
        </CharString>
        <CharString name="exclam.case">
          -21 callsubr
        </CharString>
        <CharString name="exclam.ss02">
          363 -8 45 72 82 460 45 hstem
          45 45 273 68 273 45 vstem
          397 -8 rmoveto
          194 158 158 194 194 -158 158 -194 -194 -158 -158 -194 -194 158 -158 194 hvcurveto
          45 vmoveto
          -169 -138 138 169 169 138 138 169 169 138 -138 -169 -169 -138 -138 -169 hvcurveto
          -20 231 rmoveto
          40 hlineto
          8 55 6 88 69 vvcurveto
          99 -68 -99 vlineto
          -69 6 -88 8 -55 vhcurveto
          -14 -159 rmoveto
          68 82 -68 hlineto
          endchar
        </CharString>
        <CharString name="exclamdbl">
          -4 0 117 571 -20 hstemhm
          58 129 -124 119 62 129 -124 119 hintmask 00000000
          hintmask 11101000
          86 208 rmoveto
          73 hlineto
          0 28 347 75 vvcurveto
          58 -129 -58 vlineto
          -75 28 -347 0 vhcurveto
          186 hmoveto
          73 hlineto
          0 28 347 75 vvcurveto
          58 -129 -58 vlineto
          -75 28 -347 0 vhcurveto
          hintmask 11010100
          -209 -208 rmoveto
          119 117 -119 hlineto
          186 -117 -94 callgsubr
        </CharString>
        <CharString name="exclamdown">
          -194 393 117 hstemhm
          53 129 -124 119 hintmask 10100000
          58 78 callsubr
          hintmask 11000000
          37 callsubr
        </CharString>
        <CharString name="exclamdown.case">
          -194 21 -21 571 117 hstemhm
          53 129 -124 119 hintmask 11010000
          58 571 rmoveto
          119 117 -119 hlineto
          hintmask 11100000
          37 callsubr
        </CharString>
        <CharString name="f">
          -131 123 callgsubr
          vstem
          86 hmoveto
          -54 callsubr
          endchar
        </CharString>
        <CharString name="f_f">
          169 123 callgsubr
          194 106 vstem
          86 hmoveto
          -54 callsubr
          300 -418 rmoveto
          -54 callsubr
          endchar
        </CharString>
        <CharString name="fi">
          85 80 callgsubr
          124 109 hstem
          86 106 163 106 vstem
          86 hmoveto
          -54 callsubr
          268 216 -15 callgsubr
          1 141 callgsubr
        </CharString>
        <CharString name="five">
          25 -8 101 231 101 162 101 hstem
          55 105 146 -41 callgsubr
          51 -22 callgsubr
        </CharString>
        <CharString name="five.dnom">
          -145 -4 68 109 69 69 69 hstem
          40 68 82 70 vstem
          38 68 -54 callgsubr
          endchar
        </CharString>
        <CharString name="five.numr">
          -145 304 68 109 69 69 69 hstem
          40 68 82 70 vstem
          38 376 -54 callgsubr
          endchar
        </CharString>
        <CharString name="five.tnum">
          57 -8 101 231 101 162 101 hstem
          71 105 146 -41 callgsubr
          67 -22 callgsubr
        </CharString>
        <CharString name="fiveeighths">
          264 91 callgsubr
          78 68 -56 68 97 69 69 69 hstemhm
          40 68 82 70 158 110 callgsubr
          -28 callgsubr
          hintmask 0111011111010000
          38 376 -54 callgsubr
          86 -376 rmoveto
          4 callgsubr
          hintmask 1010111111010000
          81 callsubr
          hintmask 1010111111100000
          -71 callsubr
          hintmask 1010111111010000
          -76 29 -28 93 vhcurveto
          hintmask 1010111111100000
          -49 callgsubr
          hintmask 1010111111010000
          -52 callgsubr
        </CharString>
        <CharString name="fl">
          85 123 callgsubr
          163 106 vstem
          86 hmoveto
          -54 callsubr
          269 -418 rmoveto
          106 743 -106 hlineto
          endchar
        </CharString>
        <CharString name="florin">
          -46 -193 83 527 93 149 83 hstem
          -94 481 vstem
          370 659 rmoveto
          17 83 rlineto
          -178 -27 -26 -206 -39 hvcurveto
          -68 hlineto
          -20 -93 rlineto
          69 hlineto
          -97 -450 rlineto
          -68 -15 -12 -9 -76 hhcurveto
          -18 -83 rlineto
          170 27 22 171 37 hvcurveto
          89 417 rlineto
          90 hlineto
          19 93 rlineto
          -90 hlineto
          147 29 7 2 86 hhcurveto
          endchar
        </CharString>
        <CharString name="four">
          46 21 -21 147 100 441 -20 hstem
          275 -41 callgsubr
          275 81 callgsubr
          -132 hlineto
          162 441 rlineto
          -117 hlineto
          -162 -453 rlineto
          -88 249 vlineto
          endchar
        </CharString>
        <CharString name="four.dnom">
          -144 0 142 -67 67 hstemhm
          165 71 hintmask 10100000
          165 hmoveto
          71 hlineto
          hintmask 01100000
          75 37 vlineto
          hintmask 10100000
          67 -37 92 -55 vlineto
          122 callgsubr
          hintmask 01100000
          141 callsubr
        </CharString>
        <CharString name="four.numr">
          -144 383 67 238 -20 hstem
          165 71 vstem
          165 308 rmoveto
          71 75 37 67 -37 92 -55 hlineto
          122 callgsubr
          141 callsubr
        </CharString>
        <CharString name="four.ss01">
          49 21 -21 146 102 328 112 hstem
          275 -41 callgsubr
          275 hmoveto
          112 146 65 102 -65 440 -170 hlineto
          -191 -455 rlineto
          -87 249 vlineto
          -140 102 rmoveto
          135 328 rlineto
          5 -328 hlineto
          endchar
        </CharString>
        <CharString name="four.tnum">
          57 21 -21 147 100 441 -20 hstem
          282 -41 callgsubr
          282 81 callgsubr
          -137 hlineto
          167 441 rlineto
          -119 hlineto
          -165 -453 rlineto
          -88 254 vlineto
          endchar
        </CharString>
        <CharString name="fraction">
          -332 92 callsubr
          -162 423 vstem
          -162 hmoveto
          4 callgsubr
          endchar
        </CharString>
        <CharString name="g">
          -42 callsubr
          hstemhm
          41 106 143 106 hintmask 11001110
          207 -199 69 callsubr
          hintmask 11010110
          444 -98 vlineto
          hintmask 11100110
          66 callgsubr
          hintmask 11001110
          -91 callgsubr
          38 callsubr
          -92 callsubr
        </CharString>
        <CharString name="g_tilde.loclGUA">
          -42 callsubr
          91 -84 callsubr
          41 106 -73 63 153 106 -82 133 callgsubr
          hintmask 1100101100100000
          378 743 -94 callsubr
          hintmask 1100110011000000
          -101 callsubr
          hintmask 1100101100100000
          -95 callsubr
          hintmask 1101001101000000
          -171 -942 69 callsubr
          444 -98 vlineto
          hintmask 1110001101000000
          66 callgsubr
          hintmask 1100101101000000
          -91 callgsubr
          hintmask 1101001101000000
          38 callsubr
          hintmask 1100101101000000
          -92 callsubr
        </CharString>
        <CharString name="gbreve">
          -42 callsubr
          87 65 hstemhm
          41 106 -46 -30 callgsubr
          -60 65 callsubr
          hintmask 1100110110000000
          350 -69 callsubr
          -143 -942 rmoveto
          hintmask 1101011001000000
          17 callsubr
          444 -98 vlineto
          hintmask 1110011001000000
          66 callgsubr
          hintmask 1100111001000000
          -91 callgsubr
          hintmask 1100110110000000
          38 callsubr
          hintmask 1100111001000000
          -92 callsubr
        </CharString>
        <CharString name="gcaron">
          -42 callsubr
          90 135 104 callgsubr
          171 608 -100 callsubr
          113 -935 69 callsubr
          hintmask 11010111
          444 -98 vlineto
          hintmask 11100111
          66 callgsubr
          hintmask 11001111
          -91 callgsubr
          38 callsubr
          -92 callsubr
        </CharString>
        <CharString name="gcircumflex">
          -42 callsubr
          91 134 104 callgsubr
          94 609 -107 callgsubr
          113 -815 69 callsubr
          hintmask 11010111
          444 -98 vlineto
          hintmask 11100111
          66 callgsubr
          hintmask 11001111
          -91 callgsubr
          38 callsubr
          -92 callsubr
        </CharString>
        <CharString name="gcommaaccent">
          -42 callsubr
          82 111 67 49 hstemhm
          41 106 22 113 8 65 callsubr
          hintmask 1100111111000000
          291 35 callgsubr
          -84 -977 rmoveto
          hintmask 1101011101000000
          17 callsubr
          444 -98 vlineto
          hintmask 1110011101000000
          66 callgsubr
          hintmask 1100111101000000
          -91 callgsubr
          hintmask 1100111111000000
          38 callsubr
          hintmask 1100111101000000
          -92 callsubr
        </CharString>
        <CharString name="gdotaccent">
          -42 callsubr
          118 94 hstemhm
          41 106 31 95 17 65 callsubr
          hintmask 1100111110000000
          178 31 callgsubr
          29 -929 rmoveto
          hintmask 1101011010000000
          17 callsubr
          444 -98 vlineto
          hintmask 1110011010000000
          66 callgsubr
          hintmask 1100111010000000
          -91 callgsubr
          hintmask 1100111110000000
          38 callsubr
          hintmask 1100111010000000
          -92 callsubr
        </CharString>
        <CharString name="germandbls">
          35 0 92 289 93 184 92 hstemhm
          55 106 66 98 -13 106 -100 106 hintmask 11110010
          251 hmoveto
          150 23 72 166 129 -31 48 -68 15 hvcurveto
          4 vlineto
          hintmask 11110100
          65 13 28 43 91 vvcurveto
          109 -40 60 -142 -137 -44 -61 -141 vhcurveto
          -548 106 545 vlineto
          98 19 15 54 53 25 -12 -78 -68 -5 -26 -64 vhcurveto
          hintmask 11111000
          -16 -93 hlineto
          hintmask 11110010
          16 hlineto
          60 15 -13 -126 -146 -8 -4 -71 hvcurveto
          -22 -92 hlineto
          endchar
        </CharString>
        <CharString name="grave">
          107 callgsubr
          164 vstem
          86 599 -93 callsubr
          endchar
        </CharString>
        <CharString name="gravecomb">
          599 70 callgsubr
          -92 599 -93 callsubr
          endchar
        </CharString>
        <CharString name="gravecomb.case">
          744 70 callgsubr
          -92 744 -93 callsubr
          endchar
        </CharString>
        <CharString name="greater">
          48 64 376 95 callgsubr
          59 64 49 callgsubr
          endchar
        </CharString>
        <CharString name="greaterequal">
          48 28 92 95 callgsubr
          59 185 49 callgsubr
          -251 vmoveto
          83 callgsubr
        </CharString>
        <CharString name="guillemotleft">
          -30 510 -20 hstem
          33 321 vstem
          125 114 82 callsubr
          244 -197 82 callsubr
          endchar
        </CharString>
        <CharString name="guillemotright">
          -30 510 -20 hstem
          46 321 vstem
          46 114 23 callgsubr
          77 -197 23 callgsubr
          endchar
        </CharString>
        <CharString name="guilsinglleft">
          -182 510 -20 hstem
          33 168 vstem
          125 114 rmoveto
          76 hlineto
          -74 197 74 199 rlineto
          -76 hlineto
          -92 -199 rlineto
          endchar
        </CharString>
        <CharString name="guilsinglright">
          -182 510 -20 hstem
          46 169 vstem
          46 114 23 callgsubr
          endchar
        </CharString>
        <CharString name="h">
          106 callsubr
          39 callgsubr
          hintmask 10111000
          297 hmoveto
          77 callgsubr
          hintmask 11011000
          22 callsubr
          hintmask 10111000
          -69 callgsubr
          endchar
        </CharString>
        <CharString name="hbar">
          106 callsubr
          78 92 39 callgsubr
          hintmask 10111100
          281 518 rmoveto
          hintmask 11011100
          -59 -38 -21 -47 -18 hvcurveto
          -5 146 98 92 -98 55 -106 -55 -46 -92 46 -596 106 268 hlineto
          hintmask 10111100
          -69 callgsubr
          -281 106 334 vlineto
          124 -18 60 -104 vhcurveto
          endchar
        </CharString>
        <CharString name="hcircumflex">
          106 callsubr
          269 134 39 callgsubr
          hintmask 10111100
          -24 787 -107 callgsubr
          321 -794 rmoveto
          77 callgsubr
          hintmask 11011100
          22 callsubr
          hintmask 10111100
          -69 callgsubr
          endchar
        </CharString>
        <CharString name="hookabovecomb">
          743 121 callgsubr
          28 callsubr
          hintmask 11100000
          -105 callsubr
          hintmask 11000000
          -89 callsubr
          endchar
        </CharString>
        <CharString name="hookabovecomb.case">
          854 121 callgsubr
          720 -74 callgsubr
          hintmask 11100000
          -105 callsubr
          hintmask 11000000
          -89 callsubr
          endchar
        </CharString>
        <CharString name="house">
          109 0 82 hstem
          30 98 283.5 98.5 vstem
          30 hmoveto
          480 375 hlineto
          -193 324 rlineto
          -94 hlineto
          -193 -324 rlineto
          98 -293 rmoveto
          280 vlineto
          142 237 142 -237 -1 -280 rlineto
          endchar
        </CharString>
        <CharString name="hungarumlaut">
          -124 609 125 hstem
          11 285 vstem
          11 609 -81 callsubr
          endchar
        </CharString>
        <CharString name="hyphen">
          50 callsubr
        </CharString>
        <CharString name="i">
          -215 21 108 callsubr
          83 callsubr
          124 callgsubr
          1 141 callgsubr
        </CharString>
        <CharString name="i.loclTRK">
          -32 callgsubr
          146 94 hstemhm
          55 106 -101 95 hintmask 00000000
          hintmask 11101000
          60 31 callgsubr
          hintmask 11110000
          -5 -730 -12 callgsubr
        </CharString>
        <CharString name="iacute">
          -32 callgsubr
          109 144 83 callsubr
          57 599 -102 callgsubr
          -2 -604 -12 callgsubr
        </CharString>
        <CharString name="iacute_j.loclNLD">
          1 -193 85 129 -10 callgsubr
          109 -4 callgsubr
          55 106 110 106 vstem
          57 599 -102 callgsubr
          216 -5 -102 callgsubr
          -218 -604 -31 callsubr
          151 -703 -70 callsubr
        </CharString>
        <CharString name="ibreve">
          -32 callgsubr
          115 113 callgsubr
          232 -69 callsubr
          hintmask 11101000
          -177 141 callgsubr
        </CharString>
        <CharString name="icircumflex">
          -32 callgsubr
          119 134 83 callsubr
          -23 609 -107 callgsubr
          78 -616 -12 callgsubr
        </CharString>
        <CharString name="idieresis">
          -32 callgsubr
          137 94 hstemhm
          -26 95 -14 106 -11 95 79 callsubr
          -26 627 -89 callgsubr
          hintmask 11101000
          -95 -721 -12 callgsubr
        </CharString>
        <CharString name="igrave">
          -32 callgsubr
          109 144 83 callsubr
          75 599 -93 callsubr
          59 -738 -12 callgsubr
        </CharString>
        <CharString name="ij">
          1 42 callsubr
          hstem
          55 106 110 106 vstem
          124 callgsubr
          216 -109 -15 callgsubr
          -215 105 callsubr
          151 -703 -70 callsubr
        </CharString>
        <CharString name="imacron">
          -32 callgsubr
          155 98 hstemhm
          7 202 -154 106 hintmask 00000000
          hintmask 11110000
          7 645 -51 callgsubr
          hintmask 11101000
          48 141 callgsubr
        </CharString>
        <CharString name="infinity">
          365 42 82 264 82 hstem
          51 91 512 91 vstem
          224 42 rmoveto
          100 45 51 66 29 hvcurveto
          -66 29 45 -51 101 hhcurveto
          136 36 77 137 136 -36 78 -136 -101 -45 -52 -66 -29 hvcurveto
          66 -29 -45 52 -100 hhcurveto
          -137 -36 -78 -136 -137 36 -77 137 hvcurveto
          8 82 rmoveto
          -76 -14 48 84 83 14 49 76 74 30 -59 -73 16 hvcurveto
          -73 -16 -30 -59 -74 hhcurveto
          333 hmoveto
          -74 -31 59 73 -16 hvcurveto
          73 16 31 59 74 hhcurveto
          76 13 -49 -83 -84 -13 -48 -76 hvcurveto
          endchar
        </CharString>
        <CharString name="integral">
          -107 -190 84 719 83 hstemhm
          87 109 -93.5 109.5 -92 109 hintmask 11010000
          32 -190 rmoveto
          hintmask 11001000
          139 58 6 137 5 -1 30 -3 56 hvcurveto
          hintmask 11010000
          -26 457 rlineto
          hintmask 11100000
          -1 17 -2 24 13 vvcurveto
          52 14 6 73 vhcurveto
          83 vlineto
          -142 -54 -7 -136 hvcurveto
          3 -54 rlineto
          hintmask 11010000
          25 -451 rlineto
          hintmask 11001000
          3 -57 2 -41 -7 vvcurveto
          -44 -19 -5 -69 vhcurveto
          endchar
        </CharString>
        <CharString name="iogonek">
          -215 -196 64 153 -10 callgsubr
          146 94 hstemhm
          20 142 -107 106 -101 95 hintmask 00000000
          hintmask 11110010
          155 730 112 callgsubr
          hintmask 11110100
          -9 -768 rmoveto
          -29 -11 17 21 35 32 41 23 18 hvcurveto
          510 -106 -510 vlineto
          hintmask 11111000
          22 hlineto
          -33 -33 -24 -41 -42 vvcurveto
          -41 22 -39 29 callsubr
          hintmask 11110100
          134 callgsubr
          endchar
        </CharString>
        <CharString name="itilde">
          -32 callgsubr
          119 -84 callsubr
          -44 63 36 106 35 64 hintmask 11011110
          260 743 -10 callsubr
          -205 141 callgsubr
        </CharString>
        <CharString name="j">
          106 callgsubr
          144 109 83 callsubr
          124 callgsubr
          -64 -936 -70 callsubr
        </CharString>
        <CharString name="jcircumflex">
          106 callgsubr
          119 134 83 callsubr
          -24 609 -107 callgsubr
          14 -809 -70 callsubr
        </CharString>
        <CharString name="k">
          -5 21 -21 209 92 209 -20 83 callsubr
          -2 callsubr
          442 -106 -743 106 209 38 hlineto
          endchar
        </CharString>
        <CharString name="kcommaaccent">
          -5 -24 callgsubr
          83 -21 209 92 209 -20 hstemhm
          55 106 0 113 hintmask 11111100
          -2 callsubr
          442 -106 -743 106 209 38 hlineto
          hintmask 11111010
          -47 -449 -90 callgsubr
        </CharString>
        <CharString name="kgreenlandic">
          -5 21 -21 209 92 209 -20 83 callsubr
          -2 callsubr
          209 -106 -510 106 209 38 hlineto
          endchar
        </CharString>
        <CharString name="l">
          -215 21 -21 83 callsubr
          63 callsubr
          endchar
        </CharString>
        <CharString name="lacute">
          -215 21 -21 777 144 83 callsubr
          57 777 -102 callgsubr
          -2 -782 rmoveto
          106 743 -106 hlineto
          endchar
        </CharString>
        <CharString name="lcaron">
          -215 21 -21 434 254 0 -20 hstemhm
          55 106 47 102 hintmask 10111000
          63 callsubr
          hintmask 11011000
          136 -309 9 callgsubr
          endchar
        </CharString>
        <CharString name="lcommaaccent">
          -215 -24 callgsubr
          83 -21 hstemhm
          55 106 -61 69 hintmask 11110000
          63 callsubr
          hintmask 11101000
          -8 -983 rmoveto
          -49 vlineto
          hintmask 11110000
          109 13 30 114 hvcurveto
          83 -113 -111 vlineto
          hintmask 11101000
          44 -16 hlineto
          -40 -9 -11 -44 vhcurveto
          endchar
        </CharString>
        <CharString name="ldot">
          -136 21 -21 240 117 hstem
          55 106 36 119 vstem
          63 callsubr
          142 -503 -94 callgsubr
        </CharString>
        <CharString name="leftOpenDialog">
          194 71 callsubr
          0 60 vstem
          626 628 rmoveto
          60 -566 vlineto
          -60 -688 59 hlineto
          567 60 -566 568 hlineto
          endchar
        </CharString>
        <CharString name="less">
          48 64 376 95 callgsubr
          420 64 60 callgsubr
          endchar
        </CharString>
        <CharString name="lessequal">
          48 28 92 95 callgsubr
          420 185 60 callgsubr
          -297 vmoveto
          83 callgsubr
        </CharString>
        <CharString name="logicalnot">
          48 205 92 hstem
          328 92 vstem
          328 69 rmoveto
          92 228 -361 -92 269 hlineto
          endchar
        </CharString>
        <CharString name="longs">
          -141 123 callgsubr
          vstem
          86 hmoveto
          106 582 hlineto
          70 12 8 77 vhcurveto
          83 vlineto
          -155 -40 -12 -171 hvcurveto
          -50 -68 -92 68 vlineto
          endchar
        </CharString>
        <CharString name="lozenge">
          19 0 87 -66 -21 600 88 0 -20 hstemhm
          31 386 hintmask 01011000
          176 hmoveto
          96 hlineto
          145 344 -145 344 rlineto
          -96 hlineto
          -145 -344 rlineto
          hintmask 10101000
          193 -257 rmoveto
          -101 257 101 256 101 -256 rlineto
          endchar
        </CharString>
        <CharString name="lslash">
          -209 21 -21 hstem
          56 106 vstem
          56 hmoveto
          106 334 hlineto
          46 16 rlineto
          94 vlineto
          -46 -16 rlineto
          315 -106 -353 vlineto
          -42 -15 rlineto
          -93 vlineto
          42 14 rlineto
          endchar
        </CharString>
        <CharString name="m">
          251 21 -25 callgsubr
          hstemhm
          55 106 128 106 128 106 hintmask 10011110
          523 hmoveto
          106 334 hlineto
          127 -20 57 -98 vhcurveto
          hintmask 11001110
          -63 -37 -22 -50 -18 hvcurveto
          -6 hlineto
          hintmask 10011110
          51 -12 -31 21 -66 hhcurveto
          hintmask 11001110
          -63 -34 -22 -50 -19 hvcurveto
          -6 hlineto
          hintmask 10101110
          -46 callsubr
          hintmask 10011110
          115 4 35 63 55 6 -8 -129 vhcurveto
          -281 106 268 vlineto
          117 4 33 63 55 6 -8 -129 vhcurveto
          endchar
        </CharString>
        <CharString name="macron">
          51 callgsubr
        </CharString>
        <CharString name="minus">
          48 207 91 95 callgsubr
          59 207 rmoveto
          361 91 -361 hlineto
          endchar
        </CharString>
        <CharString name="minute">
          -233 -14 callgsubr
          hstem
          46.5 108 vstem
          36 374 52 callsubr
          endchar
        </CharString>
        <CharString name="multiply">
          13 88 328 hstem
          57 328 vstem
          221 187 rmoveto
          99 -99 65 64 -99 100 99 99 -65 65 -99 -99 -99 99 -65 -65 99 -99 -99 -100 65 -64 rlineto
          endchar
        </CharString>
        <CharString name="n">
          25 21 97 callgsubr
          hintmask 10011100
          297 hmoveto
          -19 callgsubr
          hintmask 11001100
          -26 callsubr
          hintmask 10101100
          -46 callsubr
          hintmask 10011100
          -69 callgsubr
          endchar
        </CharString>
        <CharString name="nacute">
          25 21 -25 callgsubr
          81 144 39 callgsubr
          hintmask 10011110
          177 599 -102 callgsubr
          120 -604 -50 callgsubr
        </CharString>
        <CharString name="nacute.loclPLK">
          25 21 -25 callgsubr
          81 144 39 callgsubr
          hintmask 10011110
          177 -27 callsubr
          120 -604 -50 callgsubr
        </CharString>
        <CharString name="napostrophe">
          106 21 -25 callgsubr
          4 49 84 88 hstemhm
          21 113 2 106 136 65 callsubr
          hintmask 1000111010000000
          34 callgsubr
          366 -571 rmoveto
          106 330 hlineto
          hintmask 1001010110000000
          127 -17 61 -105 vhcurveto
          hintmask 1100010110000000
          -26 callsubr
          hintmask 1010010110000000
          -46 callsubr
          hintmask 1001010110000000
          -69 callgsubr
          endchar
        </CharString>
        <CharString name="ncaron">
          25 21 -25 callgsubr
          90 135 39 callgsubr
          hintmask 10011110
          173 608 -100 callsubr
          201 -736 -50 callgsubr
        </CharString>
        <CharString name="ncommaaccent">
          25 -24 callgsubr
          83 -25 callgsubr
          hstemhm
          55 106 15 113 8 106 hintmask 1110011010000000
          297 hmoveto
          -19 callgsubr
          hintmask 1111001010000000
          -26 callsubr
          hintmask 1110101010000000
          -46 callsubr
          hintmask 1110011010000000
          -69 callgsubr
          hintmask 1110011110000000
          -130 -521 -90 callgsubr
        </CharString>
        <CharString name="nine">
          54 -8 101 170 101 231 101 hstem
          41 111 174 113 vstem
          218 -8 rmoveto
          118 57 33 91 26 hvcurveto
          16 54 4 76 102 vvcurveto
          105 -4 74 -12 52 vhcurveto
          98 -23 -52 19 -114 -32 callsubr
        </CharString>
        <CharString name="nine.dnom">
          -132 -4 103 callgsubr
          -4 -46 callgsubr
        </CharString>
        <CharString name="nine.numr">
          -132 304 103 callgsubr
          304 -46 callgsubr
        </CharString>
        <CharString name="nine.ss01">
          50 21 -21 263 99 233 101 hstem
          35 112 183 114 vstem
          110 hmoveto
          127 hlineto
          50 47 157 186 222 vvcurveto
          161 -32 80 -172 -172 -33 -79 -139 -133 24 -82 133 47 29 6 17 25 vhcurveto
          3 -2 -49 -136 -96 -102 -41 -40 rlinecurve
          129 356 rmoveto
          -70 -22 5 112 100 18 16 74 68 23 -8 -119 -88 -22 -18 -69 hvcurveto
          endchar
        </CharString>
        <CharString name="nine.tnum">
          57 -8 101 170 101 231 101 hstem
          42 111 174 113 vstem
          219 -8 rmoveto
          105 57 26 70 29 hvcurveto
          24 56 6 83 121 vvcurveto
          127 -5 81 -19 52 vhcurveto
          73 -27 -52 15 -102 -32 callsubr
        </CharString>
        <CharString name="notequal">
          48 117 91 90 91 95 callgsubr
          210 117 rmoveto
          210 91 -167 hlineto
          43 90 rlineto
          124 91 -80 hlineto
          47 99 rlineto
          -79 hlineto
          -47 -99 rlineto
          -202 -91 158 hlineto
          -43 -90 rlineto
          -115 -91 72 hlineto
          -45 -95 rlineto
          79 hlineto
          endchar
        </CharString>
        <CharString name="ntilde">
          25 21 -25 callgsubr
          91 -84 callsubr
          55 106 -81 63 154 106 -83 133 callgsubr
          hintmask 1001011001000000
          384 743 -94 callsubr
          hintmask 1001100110000000
          -101 callsubr
          hintmask 1001011001000000
          -95 callsubr
          hintmask 1001011010000000
          -87 -743 rmoveto
          -19 callgsubr
          hintmask 1100011010000000
          -26 callsubr
          hintmask 1010011010000000
          -46 callsubr
          hintmask 1001011010000000
          -69 callgsubr
          endchar
        </CharString>
        <CharString name="numbersign">
          138 21 -21 185 79 157 78 189 -20 hstem
          45 457 vstem
          273 hmoveto
          83 hlineto
          27 185 rlineto
          96 79 -85 hlineto
          24 157 rlineto
          84 78 -73 hlineto
          29 189 rlineto
          -82 hlineto
          -29 -189 rlineto
          -106 hlineto
          28 189 rlineto
          -82 hlineto
          -29 -189 rlineto
          -88 -78 77 hlineto
          -24 -157 rlineto
          -78 -79 67 hlineto
          -27 -185 rlineto
          82 hlineto
          27 185 rlineto
          107 hlineto
          35 236 rmoveto
          -23 -157 rlineto
          -107 hlineto
          23 157 rlineto
          endchar
        </CharString>
        <CharString name="o">
          -36 callsubr
          10 callsubr
          221 -8 -103 callgsubr
          endchar
        </CharString>
        <CharString name="oacute">
          11 123 callsubr
          148 106 vstem
          174 599 -102 callgsubr
          47 -612 -103 callgsubr
          endchar
        </CharString>
        <CharString name="oacute.loclPLK">
          11 123 callsubr
          148 106 vstem
          170 -27 callsubr
          51 -612 -103 callgsubr
          endchar
        </CharString>
        <CharString name="obreve">
          -36 callsubr
          87 84 callgsubr
          345 -69 callsubr
          hintmask 11110010
          -124 -751 -103 callgsubr
          endchar
        </CharString>
        <CharString name="ocircumflex">
          29 callgsubr
          10 callsubr
          89 609 36 callsubr
          -624 -103 callgsubr
          endchar
        </CharString>
        <CharString name="odieresis">
          -36 callsubr
          109 94 hstemhm
          41 106 -61 95 81 95 -62 106 hintmask 00000000
          hintmask 11101100
          86 627 -89 callgsubr
          hintmask 11110010
          -41 -729 -103 callgsubr
          endchar
        </CharString>
        <CharString name="oe">
          255 -8 92 134 80 127 93 hstem
          66 callsubr
          141 102 vstem
          644 254 rmoveto
          190 -4 74 -164 -60 -40 -12 -25 -27 vhcurveto
          27 -26 -41 10 -61 128 callsubr
          -210 13 -53 167 62 41 9 28 26 hvcurveto
          -26 28 42 -11 63 hhcurveto
          50 61 6 9 37 hvcurveto
          85 vlineto
          -5 -49 -46 -3 -30 hhcurveto
          -99 -6 13 121 62 callgsubr
          -13 -115 hvcurveto
          -141 hlineto
          111 1 8 17 64 hhcurveto
          -253 -342 rmoveto
          -72 -2 15 156 156 2 14 72 72 2 -14 -156 -156 -2 -15 -72 hvcurveto
          endchar
        </CharString>
        <CharString name="ogonek">
          -289 -196 64 -64 200 hstemhm
          0 86 hintmask 10100000
          142 -193 rmoveto
          0 callgsubr
        </CharString>
        <CharString name="ograve">
          11 123 callsubr
          148 106 vstem
          184 599 -93 callsubr
          116 -746 -103 callgsubr
          endchar
        </CharString>
        <CharString name="ohorn">
          -36 callsubr
          -56 48 71 callgsubr
          3 69 hintmask 00000000
          hintmask 10110100
          404 137 callgsubr
          -24 hlineto
          hintmask 11011000
          -64 callgsubr
          hintmask 10111000
          72 callgsubr
          hintmask 10110100
          25 callgsubr
          hintmask 11011000
          -252 -524 rmoveto
          -73 callgsubr
        </CharString>
        <CharString name="ohungarumlaut">
          128 callgsubr
          125 10 callsubr
          117 609 -81 callsubr
          -41 -621 -103 callgsubr
          endchar
        </CharString>
        <CharString name="omacron">
          -36 callsubr
          127 98 hstemhm
          41 106 -27 202 -27 106 hintmask 00000000
          hintmask 11101000
          120 645 -51 callgsubr
          hintmask 11110100
          101 -751 -103 callgsubr
          endchar
        </CharString>
        <CharString name="one">
          -129 92 callsubr
          125 -41 callgsubr
          125 hmoveto
          74 callgsubr
          -82 hlineto
          -132 -72 rlineto
          -108 vlineto
          102 45 rlineto
          endchar
        </CharString>
        <CharString name="one.dnom">
          -231 21 -21 hstem
          83 70 vstem
          83 hmoveto
          88 callsubr
        </CharString>
        <CharString name="one.numr">
          -231 -14 callgsubr
          hstem
          83 70 vstem
          83 308 rmoveto
          88 callsubr
        </CharString>
        <CharString name="one.tnum">
          57 0 101 587 -20 hstem
          207 -41 callgsubr
          77 hmoveto
          365 101 -123 587 -81 hlineto
          -156 -78 rlineto
          -106 vlineto
          125 51 rlineto
          -454 -130 vlineto
          endchar
        </CharString>
        <CharString name="oneeighth">
          229 91 callgsubr
          90 68 304 -20 hstemhm
          96 73 199 110 callgsubr
          hintmask 1011111010000000
          -27 callgsubr
          hintmask 0111111010000000
          -25 -600 rmoveto
          4 callgsubr
          hintmask 1011111010000000
          67 -55 callsubr
        </CharString>
        <CharString name="onehalf">
          208 0 67 248 66 307 -20 hstem
          96 73 212 71 66 73 vstem
          -27 callgsubr
          327 88 rmoveto
          -352 -688 rlineto
          71 hlineto
          352 688 rlineto
          -42 -592 rmoveto
          19 5 7 17 -60 callsubr
          67 -139 vlineto
          endchar
        </CharString>
        <CharString name="onequarter">
          170 0 141 -66 66 547 -20 hstemhm
          96 73 284 73 hintmask 10111000
          -27 callgsubr
          -25 -600 rmoveto
          4 callgsubr
          30 -688 rmoveto
          73 hlineto
          hintmask 01111000
          75 34 vlineto
          hintmask 10111000
          67 callgsubr
          hintmask 01111000
          140 callsubr
        </CharString>
        <CharString name="ordfeminine">
          -99 314 66 98 57 90 71 hstem
          33 79 95 80 vstem
          119 309 rmoveto
          30 36 8 40 18 hvcurveto
          5 hlineto
          3 -43 rlineto
          76 232 hlineto
          110 -20 40 -108 -36 -43 -5 -8 -29 vhcurveto
          -65 vlineto
          3 25 43 4 15 hhcurveto
          64 9 -5 -69 hvcurveto
          -19 vlineto
          2 -24 -38 1 -19 hhcurveto
          -70 -23 -30 -83 -79 26 -34 60 hvcurveto
          36 71 rmoveto
          -36 -7 10 38 42 8 8 29 hvcurveto
          58 -21 hlineto
          -21 -1 -15 -4 -12 vhcurveto
          -21 -6 -13 -8 -28 hhcurveto
          endchar
        </CharString>
        <CharString name="ordmasculine">
          -91 309 70 247 70 hstem
          37 82 102 82 vstem
          170 309 rmoveto
          123 10 43 149 151 -10 44 -123 -123 -10 -44 -151 -149 10 -43 123 hvcurveto
          70 vmoveto
          -51 0 10 112 113 0 12 51 51 0 -12 -113 -112 0 -10 -51 hvcurveto
          endchar
        </CharString>
        <CharString name="orn.001">
          -94 223 240 hstem
          48 241 vstem
          289 341 rmoveto
          105 -6 17 -117 -112 -6 -17 -105 -102 6 -16 112 117 6 16 102 vhcurveto
          endchar
        </CharString>
        <CharString name="orn.002">
          118 234 60 100 60 hstem
          44 109 callsubr
          100 60 vstem
          210 -36 callgsubr
          63 101 -22 callsubr
          121 87 57 callgsubr
          -29 -21 22 28 29 21 21 29 28 22 -21 -29 -28 -22 -22 -28 hvcurveto
          endchar
        </CharString>
        <CharString name="orn.003">
          -16 46 596 hstem
          45 109 callsubr
          vstem
          211 -36 callgsubr
          63 101 -22 callsubr
          63 101 16 callgsubr
          endchar
        </CharString>
        <CharString name="orn.007">
          -94 222 241 hstem
          48 241 vstem
          168 222 rmoveto
          67 54 53 67 67 -54 54 -67 -67 -53 -54 -67 -67 53 -53 67 hvcurveto
          endchar
        </CharString>
        <CharString name="orn.010">
          363 72 callsubr
          45 704 vstem
          397 hmoveto
          352 348 hlineto
          108 callgsubr
          -207 -145 -143 -205 -204 145 -144 207 vhcurveto
          endchar
        </CharString>
        <CharString name="orn.015">
          134 71 callsubr
          -1 187 99 callgsubr
          187 60 -187 hlineto
          187 -272 rmoveto
          213 212 rlineto
          167 60 -192 hlineto
          -188 -187 rlineto
          endchar
        </CharString>
        <CharString name="orn.016">
          134 71 callsubr
          -1 567 99 callgsubr
          567 60 -567 hlineto
          endchar
        </CharString>
        <CharString name="orn.017">
          -371 92 callsubr
          0 60 vstem
          0 vmoveto
          60 688 -60 hlineto
          endchar
        </CharString>
        <CharString name="orn.018">
          361 46 596 hstem
          45 109 callsubr
          102 109 callsubr
          vstem
          211 -36 callgsubr
          370 hmoveto
          99 62 67 110 126 vvcurveto
          125 -67 111 -99 62 vhcurveto
          -32 -51 rlineto
          82 -51 56 -92 -104 vvcurveto
          -105 -55 -91 -83 -52 vhcurveto
          -275 51 -22 callsubr
          244 hmoveto
          65 41 44 73 83 vvcurveto
          83 -44 73 -66 41 vhcurveto
          -32 -51 rlineto
          49 -31 33 -54 -61 vvcurveto
          -62 -33 -53 -48 -31 vhcurveto
          -149 50 16 callgsubr
          118 hmoveto
          22 callgsubr
        </CharString>
        <CharString name="orn.019">
          118 234 60 100 60 hstem
          44 60 100 109 callsubr
          vstem
          338 -28 callsubr
          -89 36 57 callgsubr
          -28 -22 22 28 29 22 21 28 29 21 -21 -29 -28 -21 -22 -29 hvcurveto
          endchar
        </CharString>
        <CharString name="orn.020">
          -16 46 596 hstem
          70 109 callsubr
          vstem
          204 -28 callsubr
          -31 50 rmoveto
          22 callgsubr
        </CharString>
        <CharString name="orn.021">
          322 696 -20 hstem
          45 663 vstem
          376 -116 rmoveto
          0 332 172 308 vvcurveto
          188 -149 144 -183 -183 -148 -144 -188 -308 331 -172 0 vhcurveto
          endchar
        </CharString>
        <CharString name="orn.022">
          -42 220 246 hstem
          48 301 vstem
          171 220 rmoveto
          98 80 83 40 40 -80 83 -98 -81 -42 -55 -68 -68 42 -55 81 hvcurveto
          endchar
        </CharString>
        <CharString name="oslash">
          135 callsubr
          71 callgsubr
          hintmask 00000000
          hintmask 01101100
          41 -55 rmoveto
          95 hlineto
          21 51 rlineto
          hintmask 10011100
          26 callgsubr
          hintmask 01101100
          59 callsubr
          hintmask 10101100
          143 52 rmoveto
          -73 callgsubr
        </CharString>
        <CharString name="oslashacute">
          135 callsubr
          105 44 callsubr
          hintmask 10101110
          170 599 -102 callgsubr
          hintmask 01101110
          -129 -659 rmoveto
          95 hlineto
          21 51 rlineto
          hintmask 10011110
          26 callgsubr
          hintmask 01101110
          59 callsubr
          hintmask 10101110
          143 52 rmoveto
          -73 callgsubr
        </CharString>
        <CharString name="otilde">
          128 callgsubr
          -84 callsubr
          41 106 -77 63 162 106 -91 64 hintmask 00000000
          hintmask 11011001
          374 743 -94 callsubr
          hintmask 11100110
          -101 callsubr
          hintmask 11011001
          -95 callsubr
          hintmask 11011010
          -153 -751 -103 callgsubr
          endchar
        </CharString>
        <CharString name="p">
          21 -8 98 -33 33 329 91 -91 99 hstemhm
          55 106 144 106 hintmask 10011100
          55 -192 rmoveto
          106 hlineto
          hintmask 01011100
          249 6 vlineto
          hintmask 10011100
          -48 18 40 -17 53 hhcurveto
          104 29 64 201 206 -33 55 -102 -44 -50 -11 -61 -19 hvcurveto
          -7 hlineto
          hintmask 10101100
          -4 64 rlineto
          -97 hlineto
          176 -420 rmoveto
          -42 -17 14 49 -7 hvcurveto
          -3 24 -1 33 45 vvcurveto
          hintmask 10011100
          54 1 37 6 25 vhcurveto
          37 8 18 11 37 hhcurveto
          66 8 -10 -154 hvcurveto
          hintmask 10101100
          -154 -8 -11 -66 vhcurveto
          endchar
        </CharString>
        <CharString name="paragraph">
          41 -14 callgsubr
          hstem
          188 85 52 84 vstem
          188 -144 rmoveto
          85 832 -85 hlineto
          -142 -12 -31 -203 -203 12 -29 142 hvcurveto
          137 -366 rmoveto
          84 832 -84 hlineto
          endchar
        </CharString>
        <CharString name="parenleft">
          -156 -150 893 83 callsubr
          172 -150 rmoveto
          85 hlineto
          -64 106 -32 48 293 vvcurveto
          291 32 49 64 106 vhcurveto
          -85 hlineto
          -86 -126 -31 -58 -262 vvcurveto
          -263 31 -51 86 -133 vhcurveto
          endchar
        </CharString>
        <CharString name="parenleft.ss02">
          34 callsubr
          -204 145 -144 207 hvcurveto
          endchar
        </CharString>
        <CharString name="parenright">
          -156 -150 893 hstem
          113 106 vstem
          17 -150 rmoveto
          85 hlineto
          86 133 31 51 263 vvcurveto
          262 -31 58 -86 126 vhcurveto
          -85 hlineto
          64 -106 32 -49 -291 vvcurveto
          -293 -32 -48 -64 -106 vhcurveto
          endchar
        </CharString>
        <CharString name="parenright.ss02">
          -34 72 callsubr
          0 352 vstem
          0 vmoveto
          207 145 144 204 108 callgsubr
          hvcurveto
          endchar
        </CharString>
        <CharString name="partialdiff">
          11 -8 92 342 91 10 callsubr
          221 -8 rmoveto
          170 10 60 210 91 -9 79 -15 68 hvcurveto
          -24 106 -41 79 -51 58 rrcurveto
          -109 -4 hlineto
          51 -61 43 -75 25 -101 -2 -3 rcurveline
          11 -22 -30 7 -33 hhcurveto
          -132 -11 -81 -182 -203 11 -59 169 hvcurveto
          92 vmoveto
          -74 0 18 153 158 0 13 74 74 0 -29 140 callgsubr
        </CharString>
        <CharString name="percent">
          273 -8 61 -32 -21 311 61 -57 62 257 62 -8 -20 hstemhm
          46 76 93 76 123 76 92 76 hintmask 1010101111000000
          169 311 88 callgsubr
          -10 -43 -150 -151 10 -41 113 hvcurveto
          hintmask 0110011111000000
          -31 -311 rmoveto
          70 hlineto
          359 688 rlineto
          -71 hlineto
          -327 -316 rmoveto
          -45 -2 5 126 hvcurveto
          hintmask 1010101111000000
          126 2 5 45 43 3 -5 -126 vhcurveto
          hintmask 0110011111000000
          -126 -3 -5 -43 vhcurveto
          hintmask 1001101111000000
          367 -380 88 callgsubr
          -9 -43 -150 -151 9 -41 113 hvcurveto
          61 vmoveto
          -44 -2 5 126 126 2 5 44 43 3 -5 -126 -126 -3 -5 -43 hvcurveto
          endchar
        </CharString>
        <CharString name="period">
          -207 0 62 callsubr
          53 hmoveto
          119 117 -119 hlineto
          endchar
        </CharString>
        <CharString name="periodcentered">
          -207 240 62 callsubr
          53 240 -94 callgsubr
        </CharString>
        <CharString name="perthousand">
          417 -8 56 -27 -21 273 56 30 56 225 56 -8 -20 hstemhm
          46 69 78 69 71 69 78 69 37 69 78 69 -28 callgsubr
          hintmask 0101101100000000
          154 359 49 callsubr
          -72 -359 rmoveto
          70 hlineto
          hintmask 0001011100000000
          362 688 rlineto
          -70 hlineto
          -290 -273 rmoveto
          -37 -2 3 109 hvcurveto
          hintmask 0000101100000000
          136 callsubr
          vhcurveto
          hintmask 0001011100000000
          -109 -2 -3 -37 vhcurveto
          hintmask 1010000011110000
          287 -423 49 callsubr
          253 hmoveto
          98 10 37 131 131 -10 38 -98 -98 -10 -38 -131 -131 10 -37 98 hvcurveto
          -253 56 rmoveto
          -37 -2 3 109 136 callsubr
          -109 -2 -3 -37 hvcurveto
          253 hmoveto
          -37 -2 3 109 109 2 4 37 37 2 -4 -109 -109 -2 -3 -37 hvcurveto
          endchar
        </CharString>
        <CharString name="pi">
          24 21 -21 419 91 hstem
          55 106 134 105 vstem
          295 hmoveto
          105 510 -345 -510 106 419 134 hlineto
          endchar
        </CharString>
        <CharString name="plus">
          48 207 91 hstem
          194 91 vstem
          194 72 rmoveto
          91 135 135 91 -135 135 -91 -135 -135 -91 135 hlineto
          endchar
        </CharString>
        <CharString name="plusminus">
          48 28 92 209 92 hstem
          194 91 vstem
          194 194 rmoveto
          91 135 135 92 -135 135 -91 -135 -135 -92 135 hlineto
          -135 -301 rmoveto
          83 callgsubr
        </CharString>
        <CharString name="product">
          102 587 101 hstem
          61 112 187 -41 callgsubr
          360 -190 rmoveto
          112 878 -411 -878 112 777 187 hlineto
          endchar
        </CharString>
        <CharString name="q">
          21 -8 98 329 91 -91 99 73 callgsubr
          hintmask 10111000
          291 -192 rmoveto
          106 hlineto
          hintmask 11011000
          702 -98 vlineto
          hintmask 10111000
          66 callgsubr
          61 -19 -50 11 -44 hhcurveto
          -103 -32 -56 -206 -201 29 -63 104 53 39 17 48 19 hvcurveto
          6 hlineto
          -70 33 rmoveto
          -66 -8 11 154 154 8 10 66 35 18 -10 -31 8 hvcurveto
          8 -25 1 -39 -59 vvcurveto
          -52 -1 -37 -5 -25 vhcurveto
          -39 -9 -17 -12 -38 hhcurveto
          endchar
        </CharString>
        <CharString name="question">
          -53 callsubr
        </CharString>
        <CharString name="question.case">
          -53 callsubr
        </CharString>
        <CharString name="questiondown">
          -75 -186 101 478 117 hstemhm
          40 113 callsubr
          174 393 -42 callgsubr
        </CharString>
        <CharString name="questiondown.case">
          -63 -8 101 478 117 hstemhm
          36 113 callsubr
          170 571 -42 callgsubr
        </CharString>
        <CharString name="quotedbl">
          -81 434 254 hstem
          48 102 49 102 vstem
          98 callsubr
          164 -192 rmoveto
          76 hlineto
          13 192 rlineto
          62 -102 -62 vlineto
          endchar
        </CharString>
        <CharString name="quotedblbase">
          -43 -133 49 84 111 hstem
          53 113 56 113 vstem
          44 -84 -8 callgsubr
        </CharString>
        <CharString name="quotedblleft">
          -49 444 111 84 49 hstem
          49 113 56 113 vstem
          49 444 27 callsubr
          -108 -14 -34 -127 hvcurveto
          169 -83 27 callsubr
          -109 -13 -34 -127 hvcurveto
          endchar
        </CharString>
        <CharString name="quotedblright">
          -49 444 49 84 111 hstem
          51 113 56 113 vstem
          42 493 -8 callgsubr
        </CharString>
        <CharString name="quoteleft">
          -217 444 111 84 49 hstem
          49 113 vstem
          49 444 27 callsubr
          -108 -14 -34 -127 hvcurveto
          endchar
        </CharString>
        <CharString name="quoteright">
          -217 444 49 84 111 hstem
          51 113 vstem
          42 493 rmoveto
          -49 vlineto
          109 13 61 callgsubr
        </CharString>
        <CharString name="quotesinglbase">
          -212 -133 49 84 111 hstem
          53 113 vstem
          44 -84 rmoveto
          -49 vlineto
          109 13 61 callgsubr
        </CharString>
        <CharString name="quotesingle">
          100 callsubr
          98 callsubr
          endchar
        </CharString>
        <CharString name="r">
          17 callgsubr
          hstemhm
          55 106 hintmask 10110000
          55 hmoveto
          106 234 hlineto
          hintmask 11010000
          -49 callsubr
          hintmask 10110000
          95 callsubr
          endchar
        </CharString>
        <CharString name="racute">
          17 callgsubr
          109 144 hstemhm
          55 106 hintmask 10111000
          102 599 -102 callgsubr
          -47 -604 rmoveto
          106 234 hlineto
          hintmask 11011000
          -49 callsubr
          hintmask 10111000
          95 callsubr
          endchar
        </CharString>
        <CharString name="radical">
          105 -106 876 hstem
          16 493 vstem
          203 -106 rmoveto
          144 hlineto
          162 876 rlineto
          -105 hlineto
          -134 -759 -107 327 -147 -63 22 -67 49 20 rlineto
          endchar
        </CharString>
        <CharString name="rcaron">
          17 callgsubr
          118 135 hstemhm
          55 106 hintmask 10111000
          98 608 -100 callsubr
          34 -736 rmoveto
          106 234 hlineto
          hintmask 11011000
          -49 callsubr
          hintmask 10111000
          95 callsubr
          endchar
        </CharString>
        <CharString name="rcommaaccent">
          -126 -24 callgsubr
          83 90 callsubr
          hstemhm
          55 106 -105 113 hintmask 11101100
          55 hmoveto
          106 234 hlineto
          hintmask 11110100
          -49 callsubr
          hintmask 11101100
          95 callsubr
          hintmask 11101010
          -8 -750 -90 callgsubr
        </CharString>
        <CharString name="registered">
          154 -8 45 256 57 118 60 122 46 hstem
          61 47 80 65 83 66 74 47 vstem
          291 696 rmoveto
          -223 -7 -46 -306 -308 7 -44 223 224 8 44 308 306 -8 46 -224 hvcurveto
          -659 vmoveto
          -178 -5 11 296 294 5 12 178 180 5 -12 -294 -296 -5 -11 -180 hvcurveto
          111 374 rmoveto
          71 -9 46 -85 vhcurveto
          -120 -370 65 135 49 hlineto
          40 -135 rlineto
          68 hlineto
          -47 148 rlineto
          34 17 5 43 45 vvcurveto
          -112 -61 rmoveto
          -37 118 39 hlineto
          37 7 -8 -49 -47 -2 -14 -44 hvcurveto
          endchar
        </CharString>
        <CharString name="rightCloseDialog">
          192 71 callsubr
          -1 187 378 60 vstem
          624 688 rmoveto
          -625 -60 565 -568 -190 hlineto
          -188 -187 rlineto
          -85 vlineto
          213 212 rlineto
          165 hlineto
          60 hlineto
          -438 60 rmoveto
          -187 -60 187 hlineto
          endchar
        </CharString>
        <CharString name="rightOpenDialog">
          193 71 callsubr
          565 60 vstem
          625 688 rmoveto
          -626 -60 566 -568 -566 -60 566 hlineto
          60 hlineto
          endchar
        </CharString>
        <CharString name="ring">
          -179 608 55 101 55 hstem
          7 69 100 69 vstem
          125 608 -85 callgsubr
          endchar
        </CharString>
        <CharString name="s">
          -50 -53 callgsubr
          118 callsubr
          191 -8 rmoveto
          -98 callsubr
          -8 40 61 -6 45 hhcurveto
          endchar
        </CharString>
        <CharString name="sacute">
          -50 54 callsubr
          33 106 103 106 vstem
          140 599 -102 callgsubr
          51 -612 rmoveto
          -98 callsubr
          -8 40 61 -6 45 hhcurveto
          endchar
        </CharString>
        <CharString name="sacute.loclPLK">
          -50 54 callsubr
          33 106 103 106 vstem
          140 -27 callsubr
          51 -612 rmoveto
          -98 callsubr
          -8 40 61 -6 45 hhcurveto
          endchar
        </CharString>
        <CharString name="scaron">
          -50 -53 callgsubr
          90 135 118 callsubr
          140 608 -100 callsubr
          128 -744 rmoveto
          -98 callsubr
          -8 40 61 -6 45 hhcurveto
          endchar
        </CharString>
        <CharString name="scedilla">
          -50 -7 91 342 92 118 callsubr
          348 151 rmoveto
          120 -40 20 -51 7 vhcurveto
          -79 10 rlineto
          -34 4 -5 6 49 vvcurveto
          50 18 9 52 36 48 -4 -5 31 vhcurveto
          85 vlineto
          9 -29 -54 7 -44 hhcurveto
          -100 -64 -31 -122 -101 19 -36 56 -8 hvcurveto
          91 -13 rlineto
          37 -5 6 -3 -55 vvcurveto
          -46 -8 -14 -64 -40 -37 2 6 -48 vhcurveto
          -86 vlineto
          30 -6 41 -5 37 -2 -58 -178 rcurveline
          -5 97 vlineto
          36 184 rlineto
          78 8 42 39 110 vvcurveto
          endchar
        </CharString>
        <CharString name="scircumflex">
          -50 44 callgsubr
          118 callsubr
          59 609 36 callsubr
          -624 rmoveto
          -98 callsubr
          -8 40 61 -6 45 hhcurveto
          endchar
        </CharString>
        <CharString name="scommaaccent">
          -50 132 callgsubr
          -33 callgsubr
          hstemhm
          33 106 0 113 -10 106 hintmask 11110100
          191 -8 rmoveto
          hintmask 11111010
          -98 callsubr
          hintmask 11110100
          -8 40 61 -6 45 hhcurveto
          -61 -232 -90 callgsubr
        </CharString>
        <CharString name="second">
          -101 374 314 hstemhm
          46.5 108 24 108 hintmask 00000000
          hintmask 11000000
          36 374 52 callsubr
          hintmask 11100000
          111 -314 52 callsubr
          endchar
        </CharString>
        <CharString name="section">
          79 -171 101 665 101 hstemhm
          36 108 -52 110 105 110 -53 109 hintmask 11100100
          236 -171 rmoveto
          hintmask 11101000
          111 70 38 129 48 -7 30 -19 23 hvcurveto
          hintmask 11010100
          61 16 21 54 92 vvcurveto
          116 -55 20 -73 30 vhcurveto
          -100 41 rlineto
          -35 14 -8 4 47 vvcurveto
          47 18 17 70 41 52 -4 -5 31 vhcurveto
          94 vlineto
          9 -32 -59 7 -50 hhcurveto
          -111 -70 -38 -129 -49 6 -31 20 -23 hvcurveto
          hintmask 11101000
          -61 -15 -21 -54 -92 vvcurveto
          -116 55 -19 73 -30 vhcurveto
          100 -41 rlineto
          35 -14 8 -4 -47 vvcurveto
          -47 -18 -17 -70 -41 -52 4 5 -31 vhcurveto
          -94 vlineto
          hintmask 11100100
          -9 32 59 -7 50 hhcurveto
          92 327 rmoveto
          -4 -14 3 7 -16 hvcurveto
          -117 48 rlineto
          -27 11 -6 20 37 vvcurveto
          58 15 28 22 5 13 -3 -7 18 vhcurveto
          119 -50 rlineto
          18 -8 10 -19 -40 vvcurveto
          -57 -13 -28 -23 vhcurveto
          endchar
        </CharString>
        <CharString name="semicolon">
          -207 -139 52 87 50 callgsubr
          -10 -597 35 callsubr
        </CharString>
        <CharString name="seven">
          -7 21 -21 587 101 hstem
          24 374 vstem
          77 hmoveto
          120 hlineto
          201 598 rlineto
          90 -374 -101 255 vlineto
          endchar
        </CharString>
        <CharString name="seven.dnom">
          -164 21 -21 311 69 hstem
          18 228 vstem
          49 hmoveto
          36 callgsubr
          endchar
        </CharString>
        <CharString name="seven.numr">
          -164 619 69 hstem
          18 228 vstem
          49 308 rmoveto
          36 callgsubr
          endchar
        </CharString>
        <CharString name="seven.tnum">
          57 21 -21 587 101 hstem
          51 392 vstem
          111 hmoveto
          119 hlineto
          213 598 rlineto
          90 -392 -101 273 vlineto
          endchar
        </CharString>
        <CharString name="seveneighths">
          210 91 callgsubr
          90 68 235 69 hstemhm
          18 228 118 110 callgsubr
          hintmask 1011111010000000
          49 308 rmoveto
          36 callgsubr
          hintmask 0111111010000000
          -100 -619 rmoveto
          4 callgsubr
          hintmask 1011111010000000
          64 -55 callsubr
        </CharString>
        <CharString name="six">
          54 -8 101 231 101 170 101 hstem
          46 113 174 111 vstem
          251 -1 callsubr
          -126 -56 -37 -104 -23 hvcurveto
          -12 -53 -4 -70 -92 vvcurveto
          -84 2 -63 7 -49 vhcurveto
          -129 19 51 -23 126 33 callgsubr
        </CharString>
        <CharString name="six.dnom">
          -132 -4 102 callsubr
          -4 -44 callsubr
        </CharString>
        <CharString name="six.numr">
          -132 304 102 callsubr
          304 -44 callsubr
        </CharString>
        <CharString name="six.ss01">
          50 -8 101 232 100 263 -20 hstem
          36 114 183 -41 callgsubr
          240 -8 rmoveto
          172 33 79 138 133 -24 83 -132 -48 -29 -7 -17 -25 hvcurveto
          -3 3 49 135 96 103 41 40 rlinecurve
          6 -128 vlineto
          -50 -48 -156 -187 -221 vvcurveto
          -161 33 -79 171 vhcurveto
          1 101 rmoveto
          -68 -23 7 119 89 22 17 69 70 22 -5 -112 -101 -18 -14 -74 hvcurveto
          endchar
        </CharString>
        <CharString name="six.tnum">
          57 -8 101 231 101 170 101 hstem
          48 113 174 111 vstem
          253 -1 callsubr
          -114 -56 -30 -83 -28 hvcurveto
          -18 -55 -5 -79 -109 vvcurveto
          -97 3 -70 10 -51 vhcurveto
          -110 21 52 -20 119 33 callgsubr
        </CharString>
        <CharString name="slash">
          138 callgsubr
          13 -55 rmoveto
          95 hlineto
          194 798 rlineto
          -95 hlineto
          endchar
        </CharString>
        <CharString name="space">
          -240 endchar
        </CharString>
        <CharString name="sterling">
          14 0 100 204 101 190 101 hstem
          92 -41 callgsubr
          204 100 rmoveto
          204 145 101 -145 vlineto
          105 4 48 27 21 vhcurveto
          13 16 25 3 37 hhcurveto
          24 37 -4 -5 24 hvcurveto
          96 vlineto
          8 -27 -47 6 -39 hhcurveto
          -155 -37 -85 -206 hvcurveto
          -58 -101 57 -204 -57 -100 371 100 hlineto
          endchar
        </CharString>
        <CharString name="summation">
          95 -190 101 676 101 hstem
          58 410 vstem
          58 -190 rmoveto
          410 101 -281 hlineto
          210 338 -210 338 rlineto
          281 101 -410 -97 hlineto
          210 -342 -210 -341 rlineto
          endchar
        </CharString>
        <CharString name="t">
          -136 80 callgsubr
          hstem
          86 106 vstem
          86 hmoveto
          106 13 callgsubr
          hlineto
          endchar
        </CharString>
        <CharString name="tbar">
          -136 21 -21 206 92 120 92 hstem
          86 106 vstem
          276 418 rmoveto
          92 -84 148 -106 -148 -69 -92 69 -120 -66 -92 66 -206 106 206 83 92 -83 120 vlineto
          endchar
        </CharString>
        <CharString name="tcaron">
          -136 80 callgsubr
          -76 76 178 -20 hstemhm
          86 106 130 102 hintmask 00000000
          hintmask 10111100
          305 434 9 callgsubr
          -236 -626 rmoveto
          106 hlineto
          hintmask 11011100
          13 callgsubr
          vlineto
          endchar
        </CharString>
        <CharString name="thorn">
          21 -8 98 -34 34 330 98 hstemhm
          55 106 144 106 hintmask 10111000
          55 -192 rmoveto
          106 hlineto
          hintmask 01111000
          248 5 vlineto
          hintmask 10111000
          -48 19 43 -16 50 hhcurveto
          104 29 63 201 206 -33 56 -102 -44 -47 -13 -57 -19 hvcurveto
          -5 295 -106 hlineto
          176 -653 rmoveto
          -44 -17 16 57 -6 hvcurveto
          -2 24 -1 30 38 vvcurveto
          47 1 35 4 25 vhcurveto
          44 7 18 14 40 hhcurveto
          66 8 -11 -154 -154 -8 -11 -66 hvcurveto
          endchar
        </CharString>
        <CharString name="three">
          9 107 callsubr
          hstemhm
          278 112 -106 112 hintmask 11101000
          192 -47 callgsubr
        </CharString>
        <CharString name="three.dnom">
          -155 -4 75 callgsubr
          -4 -44 callgsubr
        </CharString>
        <CharString name="three.numr">
          -155 304 75 callgsubr
          304 -44 callgsubr
        </CharString>
        <CharString name="three.tnum">
          57 107 callsubr
          hstemhm
          309 112 -106 112 hintmask 11101000
          223 -47 callgsubr
        </CharString>
        <CharString name="threeeighths">
          254 91 callgsubr
          78 68 -56 68 81 69 89 69 -4 -20 hstemhm
          60 125 -16 70 -66 70 165 110 callgsubr
          -28 callgsubr
          hintmask 1011011000110100
          120 304 rmoveto
          93 30 29 75 62 -20 21 -38 9 hvcurveto
          3 vlineto
          hintmask 1010111001010100
          36 8 18 26 56 vvcurveto
          75 -37 24 -81 -31 -44 -5 -5 -26 vhcurveto
          -63 vlineto
          3 28 30 1 21 hhcurveto
          55 15 -2 -42 -44 -16 -1 -34 hvcurveto
          hintmask 1010111010010100
          -59 -69 hlineto
          hintmask 1011011000110100
          59 hlineto
          39 15 -5 -43 -44 -21 -1 -50 -21 -37 2 2 -25 hvcurveto
          -63 vlineto
          -6 32 41 -3 28 hhcurveto
          hintmask 0110110100110100
          -6 -304 rmoveto
          4 callgsubr
          hintmask 1010111000110100
          81 callsubr
          hintmask 1010111000111000
          -71 callsubr
          hintmask 1010111000110100
          -76 29 -28 93 vhcurveto
          hintmask 1010111000111000
          -49 callgsubr
          hintmask 1010111000110100
          -52 callgsubr
        </CharString>
        <CharString name="threequarters">
          224 0 141 -66 66 166 66 98 64 95 66 -8 -20 hstemhm
          82 121 -27 73 -70 73 254 73 hintmask 1011100011000000
          42 378 51 callsubr
          hintmask 1011100101000000
          -51 callsubr
          hintmask 1011101001000000
          -59 -64 hlineto
          hintmask 1011100011000000
          -1 callgsubr
          82 -378 rmoveto
          71 hlineto
          hintmask 1011010011000000
          352 688 rlineto
          -71 hlineto
          30 -688 rmoveto
          73 hlineto
          hintmask 0111100011000000
          75 34 vlineto
          hintmask 1011100011000000
          67 callgsubr
          hintmask 0111100011000000
          140 callsubr
        </CharString>
        <CharString name="tilde">
          -114 609 -84 callsubr
          6 56 callgsubr
          hintmask 01110000
          310 -15 callsubr
        </CharString>
        <CharString name="tildecomb">
          609 -84 callsubr
          -311 56 callgsubr
          hintmask 01110000
          -7 -15 callsubr
        </CharString>
        <CharString name="tildecomb.case">
          754 -84 callsubr
          -311 56 callgsubr
          hintmask 01110000
          -7 2 callgsubr
          hintmask 10110000
          -101 callsubr
          hintmask 01110000
          -95 callsubr
          endchar
        </CharString>
        <CharString name="trademark">
          145 386 85 166 51 hstem
          101 55 101 51 159 52 vstem
          101 386 rmoveto
          55 251 64 51 -182 -51 63 hlineto
          156 -251 rmoveto
          51 225 4 hlineto
          52 -225 rlineto
          49 hlineto
          50 225 rlineto
          4 -225 52 302 -79 hlineto
          -48 -217 rlineto
          -5 hlineto
          -50 217 rlineto
          -80 hlineto
          endchar
        </CharString>
        <CharString name="two">
          23 0 101 494 101 hstem
          43 111 145 -41 callgsubr
          154 133 rmoveto
          51 1 25 8 16 vhcurveto
          6 12 9 6 15 -29 callsubr
        </CharString>
        <CharString name="two.dnom">
          -144 0 125 callsubr
          79 -40 callsubr
        </CharString>
        <CharString name="two.numr">
          -144 308 125 callsubr
          387 -40 callsubr
        </CharString>
        <CharString name="two.tnum">
          57 0 101 494 101 hstem
          61 111 145 -41 callgsubr
          172 133 rmoveto
          50 1 25 7 15 vhcurveto
          6 13 9 7 16 -29 callsubr
        </CharString>
        <CharString name="u">
          -72 callgsubr
          -7 callgsubr
          hintmask 00000000
          hintmask 01011100
          304 hmoveto
          97 510 -106 -268 hlineto
          hintmask 10011100
          -99 callgsubr
          134 callsubr
          endchar
        </CharString>
        <CharString name="uacute">
          25 -8 100 -92 92 -28 28 418 124 callsubr
          hintmask 10011110
          182 599 -102 callgsubr
          hintmask 01011110
          122 -604 -52 callsubr
          hintmask 10011110
          -99 callgsubr
          hintmask 00111110
          -79 callsubr
          endchar
        </CharString>
        <CharString name="ubreve">
          -72 callgsubr
          115 65 hstemhm
          53 106 -56 -30 callgsubr
          -57 65 callsubr
          hintmask 1001101100000000
          352 -69 callsubr
          hintmask 0101110010000000
          -48 136 callgsubr
          hintmask 1001110010000000
          -99 callgsubr
          hintmask 0011110010000000
          -79 callsubr
          endchar
        </CharString>
        <CharString name="ucircumflex">
          -72 callgsubr
          119 134 -7 callgsubr
          hintmask 10011110
          95 609 -107 callgsubr
          hintmask 01011110
          209 -616 -52 callsubr
          hintmask 10011110
          -99 callgsubr
          hintmask 00111110
          -79 callsubr
          endchar
        </CharString>
        <CharString name="udieresis">
          -72 callgsubr
          137 94 hstemhm
          53 106 -68 95 81 95 -67 65 callsubr
          hintmask 1001101100000000
          91 627 -89 callgsubr
          hintmask 0101110010000000
          37 -721 -52 callsubr
          hintmask 1001110010000000
          -99 callgsubr
          hintmask 0011110010000000
          -79 callsubr
          endchar
        </CharString>
        <CharString name="ugrave">
          25 -8 100 -92 92 -28 28 418 124 callsubr
          hintmask 10011110
          189 599 -93 callsubr
          hintmask 01011110
          194 -738 -52 callsubr
          hintmask 10011110
          -99 callgsubr
          hintmask 00111110
          -79 callsubr
          endchar
        </CharString>
        <CharString name="uhorn">
          115 callsubr
          -7 callgsubr
          17 69 hintmask 00000000
          hintmask 10001111
          116 callgsubr
          hintmask 10001110
          -50 -268 hlineto
          -99 callgsubr
          hintmask 00101110
          -79 callsubr
          hintmask 01010110
          47 callsubr
          hintmask 10001111
          76 -17 callsubr
        </CharString>
        <CharString name="uhungarumlaut">
          -72 callgsubr
          119 125 -7 callgsubr
          hintmask 10011110
          124 609 -81 callsubr
          hintmask 01011110
          35 -613 -52 callsubr
          hintmask 10011110
          -99 callgsubr
          hintmask 00111110
          -79 callsubr
          endchar
        </CharString>
        <CharString name="umacron">
          -72 callgsubr
          155 98 hstemhm
          53 106 -32 202 -34 106 hintmask 00000000
          hintmask 10011010
          127 645 -51 callgsubr
          hintmask 01011101
          177 136 callgsubr
          hintmask 10011101
          -99 callgsubr
          hintmask 00111101
          -79 callsubr
          endchar
        </CharString>
        <CharString name="underscore">
          -85 -180 90 hstem
          0 346 vstem
          -180 131 callsubr
          endchar
        </CharString>
        <CharString name="underscoredbl">
          -85 -289 90 47 90 hstem
          0 346 vstem
          -152 131 callsubr
          -227 131 callsubr
          endchar
        </CharString>
        <CharString name="uni00AD">
          50 callsubr
        </CharString>
        <CharString name="uni00B2">
          -131 315 67 248 66 hstem
          45 71 66 73 vstem
          116 411 rmoveto
          20 4 6 18 -60 callsubr
          67 -139 vlineto
          endchar
        </CharString>
        <CharString name="uni00B3">
          -133 307 66 98 64 95 66 hstemhm
          82 121 -27 73 -70 73 hintmask 11100100
          137 307 rmoveto
          90 25 34 74 53 -19 24 -30 11 hvcurveto
          4 vlineto
          hintmask 11101000
          -51 callsubr
          hintmask 11110000
          -59 -64 hlineto
          hintmask 11100100
          -1 callgsubr
          69 callgsubr
          endchar
        </CharString>
        <CharString name="uni00B5">
          -40 callgsubr
        </CharString>
        <CharString name="uni00B9">
          -209 -14 callgsubr
          hstem
          96 73 vstem
          -27 callgsubr
          endchar
        </CharString>
        <CharString name="uni0162">
          -9 21 77 callsubr
          13 688 rmoveto
          -104 142 -584 20 vlineto
          129 callgsubr
          37 190 rlineto
          18 584 142 104 hlineto
          endchar
        </CharString>
        <CharString name="uni0163">
          -136 80 callgsubr
          hstem
          86 106 vstem
          192 510 rmoveto
          148 -106 -148 -69 -92 69 -418 17 vlineto
          129 callgsubr
          37 190 rlineto
          15 418 84 92 hlineto
          endchar
        </CharString>
        <CharString name="uni018F">
          90 107 callsubr
          -19 callsubr
          243 696 rmoveto
          -47 -57 -7 -9 -33 hvcurveto
          -93 vlineto
          5 33 47 3 35 hhcurveto
          121 18 -18 -179 2 hvcurveto
          -315 -54 hlineto
          -279 8 -73 205 -61 callgsubr
          280 -27 72 -204 vhcurveto
          17 -603 rmoveto
          -89 -11 5 199 -1 hvcurveto
          203 hlineto
          -199 -1 -12 -5 -89 hhcurveto
          endchar
        </CharString>
        <CharString name="uni019D">
          6 callsubr
          -743 hlineto
          96 callsubr
          450 4 vlineto
          196 -434 rlineto
          105 688 hlineto
          endchar
        </CharString>
        <CharString name="uni01C4">
          516 110 callsubr
          65 135 -29 callgsubr
          659 753 -100 callsubr
          -521 -881 rmoveto
          -34 callsubr
        </CharString>
        <CharString name="uni01C5">
          126 callsubr
          -80 135 hstemhm
          10 callgsubr
          hintmask 00000000
          hintmask 10101110
          654 608 -100 callsubr
          -516 -736 rmoveto
          -18 callgsubr
          hvcurveto
          hintmask 01110110
          31 callsubr
          vhcurveto
          -23 callgsubr
          hintmask 10110110
          304 -101 rmoveto
          -83 callgsubr
          endchar
        </CharString>
        <CharString name="uni01C6">
          101 callsubr
          90 135 73 callgsubr
          hintmask 00000000
          hintmask 10100111
          3 callgsubr
          hintmask 01010111
          7 callsubr
          hintmask 01001111
          -4 callsubr
          hvcurveto
          hintmask 10100111
          -206 32 -55 103 vhcurveto
          hintmask 01100111
          415 616 -100 callsubr
          -27 -736 rmoveto
          -83 callgsubr
          hintmask 10001111
          -266 5 rmoveto
          -57 callsubr
          -28 -9 -18 -9 -33 hhcurveto
          endchar
        </CharString>
        <CharString name="uni01C7">
          240 0 104 584 -20 hstem
          61 112 328 -41 callgsubr
          2 callsubr
          340 -593 -68 callgsubr
        </CharString>
        <CharString name="uni01C8">
          172 -193 85 108 104 406 -20 144 109 -55 -20 -18 callsubr
          269 106 hintmask 00000000
          hintmask 11110110
          441 16 callsubr
          -380 -743 rmoveto
          310 104 -198 hlineto
          hintmask 11101110
          584 -112 vlineto
          316 -881 -70 callsubr
        </CharString>
        <CharString name="uni01C9">
          1 42 callsubr
          hstem
          55 106 110 106 vstem
          63 callsubr
          215 -109 -15 callgsubr
          -64 -936 -70 callsubr
        </CharString>
        <CharString name="uni01CA">
          388 130 callgsubr
          hstemhm
          9 callsubr
          175 112 hintmask 01111100
          26 callsubr
          hintmask 10111100
          376 -339 -68 callgsubr
        </CharString>
        <CharString name="uni01CB">
          320 42 callsubr
          -55 -20 hstemhm
          9 callsubr
          116 106 hintmask 00000000
          hintmask 11110111
          589 16 callsubr
          -220 -743 rmoveto
          105 hlineto
          hintmask 11101111
          41 callgsubr
          352 -627 -70 callsubr
        </CharString>
        <CharString name="uni01CC">
          241 -193 85 129 -25 callgsubr
          116 109 39 callgsubr
          108 106 hintmask 1100111110000000
          510 16 callsubr
          -213 -743 rmoveto
          -19 callgsubr
          hintmask 1110011110000000
          -26 callsubr
          hintmask 1101011110000000
          -46 callsubr
          hintmask 1100111110000000
          -69 callgsubr
          149 -474 rmoveto
          135 36 14 163 hvcurveto
          hintmask 1101011110000000
          526 -106 -565 20 callgsubr
          endchar
        </CharString>
        <CharString name="uni01CD">
          -76 callgsubr
          65 135 hstem
          12 481 vstem
          198 753 -100 callsubr
          257 -881 rmoveto
          -104 callgsubr
          endchar
        </CharString>
        <CharString name="uni01CD.ss01">
          -75 callsubr
          57 135 -37 callsubr
          205 753 -100 callsubr
          223 -881 rmoveto
          -106 callsubr
          endchar
        </CharString>
        <CharString name="uni01CE">
          -90 callsubr
          90 135 43 callgsubr
          160 608 -100 callsubr
          67 -744 rmoveto
          hintmask 00111111
          -76 callsubr
          hintmask 01011111
          -107 callsubr
          hintmask 10011111
          -101 callgsubr
          endchar
        </CharString>
        <CharString name="uni01CF">
          -16 callgsubr
          85 135 133 callsubr
          64 753 -100 callsubr
          76 -881 -38 callsubr
        </CharString>
        <CharString name="uni01D0">
          -32 callgsubr
          118 135 83 callsubr
          53 608 -100 callsubr
          79 -736 -12 callgsubr
        </CharString>
        <CharString name="uni01D1">
          -48 callgsubr
          57 135 -19 callsubr
          206 753 -100 callsubr
          131 -889 -103 callsubr
          endchar
        </CharString>
</ttFont>
